<svg width="66" height="29" viewBox="0 0 66 29" fill="none" xmlns="http://www.w3.org/2000/svg">
<path d="M16.2601 11.7299C16.4201 11.7899 16.5201 11.8999 16.5601 12.0599C16.6201 12.1999 16.6201 12.3499 16.5601 12.5099C15.9601 13.8899 15.3201 15.1599 14.6401 16.3199C13.9801 17.4799 13.3201 18.4099 12.6601 19.1099C11.9601 19.8499 11.3201 20.3499 10.7401 20.6099C10.1601 20.8499 9.67008 20.9699 9.27008 20.9699C9.05008 20.9699 8.90008 20.9599 8.82008 20.9399C8.50008 20.8799 8.13008 20.7299 7.71008 20.4899C7.31008 20.2299 6.94008 19.7699 6.60008 19.1099L6.24008 18.2099C6.06008 18.7699 5.84008 19.2199 5.58008 19.5599C4.94008 20.5799 4.13008 21.0399 3.15008 20.9399C2.69008 20.8999 2.26008 20.7399 1.86008 20.4599C1.48008 20.1599 1.15008 19.7499 0.870078 19.2299C0.290078 18.2099 0.0600781 17.0199 0.180078 15.6599C0.300078 13.9999 0.700078 12.6499 1.38008 11.6099C2.06008 10.5899 2.86008 10.0499 3.78008 9.98994C4.46008 9.92994 5.06008 10.1799 5.58008 10.7399C6.08008 11.2599 6.43008 11.9899 6.63008 12.9299C6.69008 13.3099 6.54008 13.5499 6.18008 13.6499C6.02008 13.6899 5.87008 13.6599 5.73008 13.5599C5.59008 13.4599 5.50008 13.3299 5.46008 13.1699C5.32008 12.5299 5.10008 12.0299 4.80008 11.6699C4.52008 11.3099 4.20008 11.1499 3.84008 11.1899C3.58008 11.2099 3.31008 11.3199 3.03008 11.5199C2.77008 11.7199 2.52008 12.0199 2.28008 12.4199C2.06008 12.7999 1.86008 13.2699 1.68008 13.8299C1.52008 14.3899 1.41008 15.0299 1.35008 15.7499C1.25008 16.8699 1.44008 17.8399 1.92008 18.6599C2.10008 18.9799 2.31008 19.2399 2.55008 19.4399C2.79008 19.6199 3.03008 19.7199 3.27008 19.7399C3.55008 19.7799 3.80008 19.7099 4.02008 19.5299C4.26008 19.3299 4.45008 19.1199 4.59008 18.8999C4.79008 18.6199 4.99008 18.1799 5.19008 17.5799C5.41008 16.9599 5.58008 16.1099 5.70008 15.0299C5.74008 14.6699 5.94008 14.4899 6.30008 14.4899C6.46008 14.4899 6.59008 14.5399 6.69008 14.6399C6.81008 14.7399 6.88008 14.8699 6.90008 15.0299C6.98008 16.4099 7.21008 17.5199 7.59008 18.3599C7.97008 19.1799 8.45008 19.6399 9.03008 19.7399C9.35008 19.7999 9.75008 19.7099 10.2301 19.4699C10.7101 19.2099 11.2301 18.7799 11.7901 18.1799C12.3501 17.5599 12.9401 16.7499 13.5601 15.7499C14.1801 14.7299 14.8101 13.4899 15.4501 12.0299C15.5301 11.8699 15.6401 11.7599 15.7801 11.6999C15.9401 11.6399 16.1001 11.6499 16.2601 11.7299ZM27.8163 11.7299C27.9763 11.8099 28.0763 11.9299 28.1163 12.0899C28.1763 12.2299 28.1663 12.3799 28.0863 12.5399C27.6863 13.3199 27.2063 14.1199 26.6463 14.9399C26.1063 15.7399 25.4863 16.4699 24.7863 17.1299C24.1663 17.7099 23.5363 18.2399 22.8963 18.7199C22.2563 19.1999 21.6163 19.6699 20.9763 20.1299C20.5763 20.4299 20.1763 20.7199 19.7763 20.9999C19.3763 21.2999 18.9863 21.6099 18.6063 21.9299C18.5063 23.2299 18.3263 24.2999 18.0663 25.1399C17.3863 27.2799 16.5762 28.3999 15.6362 28.4999H15.5162C15.0562 28.4999 14.7162 28.2799 14.4962 27.8399C14.2362 27.3799 14.1662 26.7399 14.2862 25.9199C14.4062 25.0999 14.7962 24.2599 15.4562 23.3999C15.7562 22.9999 16.0762 22.6299 16.4163 22.2899C16.7362 21.9699 17.0862 21.6499 17.4663 21.3299C17.5263 20.3699 17.5563 19.3199 17.5563 18.1799C17.5763 17.0199 17.5863 15.7999 17.5863 14.5199V11.6999C17.6063 10.2799 17.6363 8.84994 17.6763 7.40994C17.7163 5.94994 17.8163 4.52994 17.9763 3.14994C18.1563 1.32994 18.5863 0.319941 19.2663 0.119941C19.3663 0.0999403 19.5263 0.0999403 19.7463 0.119941C19.9663 0.139941 20.1863 0.299941 20.4063 0.59994C20.7063 0.99994 20.9163 1.59994 21.0363 2.39994C21.1763 3.19994 21.1963 4.07994 21.0963 5.03994C21.0363 5.87994 20.8463 6.90994 20.5263 8.12994C20.2063 9.32994 19.6263 10.6199 18.7863 11.9999V14.0099L22.4163 13.4399C22.5763 13.3999 22.7163 13.4399 22.8363 13.5599C22.9763 13.6599 23.0563 13.7899 23.0763 13.9499C23.1163 14.1099 23.0863 14.2599 22.9863 14.3999C22.8863 14.5199 22.7563 14.5999 22.5963 14.6399L18.7863 15.2099C18.7863 16.1299 18.7863 17.0199 18.7863 17.8799C18.7863 18.7399 18.7663 19.5499 18.7263 20.3099C18.9663 20.1099 19.2163 19.9199 19.4763 19.7399C19.7363 19.5599 20.0063 19.3699 20.2863 19.1699C20.9063 18.7299 21.5263 18.2599 22.1463 17.7599C22.7663 17.2399 23.3663 16.6899 23.9463 16.1099C24.5463 15.5299 25.0963 14.8999 25.5963 14.2199C26.1163 13.5399 26.5863 12.7999 27.0063 11.9999C27.0863 11.8399 27.1963 11.7399 27.3363 11.6999C27.4963 11.6399 27.6563 11.6499 27.8163 11.7299ZM19.1463 3.26994C19.0463 4.22994 18.9763 5.21994 18.9363 6.23994C18.8963 7.23994 18.8563 8.24994 18.8163 9.26994C19.1563 8.50994 19.4163 7.73994 19.5963 6.95994C19.7763 6.15994 19.8863 5.37994 19.9263 4.61994C19.9663 3.77994 19.9363 3.09994 19.8363 2.57994C19.7363 2.05994 19.6363 1.68994 19.5363 1.46994C19.4763 1.58994 19.4063 1.78994 19.3263 2.06994C19.2663 2.34994 19.2063 2.74994 19.1463 3.26994ZM16.9262 24.7799C17.0662 24.3399 17.1862 23.7899 17.2862 23.1299C17.1262 23.2899 16.9762 23.4499 16.8362 23.6099C16.6962 23.7899 16.5562 23.9599 16.4163 24.1199C15.8762 24.8399 15.5562 25.5699 15.4562 26.3099C15.4162 26.5899 15.4162 26.8099 15.4562 26.9699C15.4762 27.1299 15.5062 27.2299 15.5462 27.2699C15.6262 27.2499 15.7962 27.0799 16.0562 26.7599C16.2962 26.4399 16.5862 25.7799 16.9262 24.7799ZM39.337 11.6999C39.497 11.7799 39.597 11.8999 39.637 12.0599C39.697 12.1999 39.687 12.3499 39.607 12.5099C39.027 13.6899 38.417 14.8299 37.777 15.9299C37.157 17.0099 36.557 17.8999 35.977 18.5999C34.677 20.1599 33.507 20.9399 32.467 20.9399C32.287 20.9399 32.107 20.9099 31.927 20.8499C30.627 20.5299 29.757 18.9599 29.317 16.1399C28.957 13.7999 28.867 10.5399 29.047 6.35994L26.887 6.62994C26.727 6.62994 26.597 6.57994 26.497 6.47994C26.377 6.37994 26.307 6.24994 26.287 6.08994C26.267 5.92994 26.317 5.78994 26.437 5.66994C26.537 5.52994 26.667 5.44994 26.827 5.42994L29.107 5.15994C29.127 4.81994 29.147 4.46994 29.167 4.10994C29.187 3.74994 29.217 3.38994 29.257 3.02994C29.297 2.42994 29.357 1.94994 29.437 1.58994C29.537 1.20994 29.637 0.91994 29.737 0.719941C29.857 0.49994 29.977 0.34994 30.097 0.269941C30.217 0.169941 30.327 0.0999409 30.427 0.0599402C30.507 0.0199407 30.637 0.00994086 30.817 0.0299406C31.017 0.0499403 31.227 0.17994 31.447 0.419941C31.727 0.779941 31.947 1.34994 32.107 2.12994C32.267 2.90994 32.327 3.77994 32.287 4.73994L34.357 4.46994C34.517 4.44994 34.657 4.49994 34.777 4.61994C34.917 4.71994 34.997 4.84994 35.017 5.00994C35.037 5.16994 34.987 5.31994 34.867 5.45994C34.767 5.57994 34.637 5.64994 34.477 5.66994L32.197 5.96994C32.097 6.80994 31.897 7.75994 31.597 8.81994C31.317 9.87994 30.857 11.0099 30.217 12.2099C30.197 12.2099 30.187 12.2199 30.187 12.2399C30.227 12.9399 30.267 13.5999 30.307 14.2199C30.347 14.8399 30.417 15.4099 30.517 15.9299C30.637 16.6899 30.767 17.3099 30.907 17.7899C31.067 18.2499 31.217 18.6199 31.357 18.8999C31.517 19.1799 31.667 19.3799 31.807 19.4999C31.967 19.6199 32.107 19.6899 32.227 19.7099C32.567 19.8099 32.977 19.6999 33.457 19.3799C33.937 19.0399 34.467 18.5299 35.047 17.8499C35.607 17.1899 36.187 16.3299 36.787 15.2699C37.407 14.2099 37.987 13.1099 38.527 11.9699C38.607 11.8099 38.717 11.7099 38.857 11.6699C39.017 11.6099 39.177 11.6199 39.337 11.6999ZM30.457 3.11994C30.417 3.45994 30.387 3.77994 30.367 4.07994C30.367 4.37994 30.357 4.67994 30.337 4.97994L31.057 4.88994C31.057 4.84994 31.057 4.80994 31.057 4.76994C31.077 4.70994 31.087 4.64994 31.087 4.58994C31.127 3.80994 31.097 3.16994 30.997 2.66994C30.897 2.14994 30.797 1.76994 30.697 1.52994C30.657 1.66994 30.617 1.86994 30.577 2.12994C30.537 2.36994 30.497 2.69994 30.457 3.11994ZM30.277 6.20994C30.217 7.32994 30.187 8.36994 30.187 9.32994C30.367 8.80994 30.517 8.27994 30.637 7.73994C30.757 7.19994 30.857 6.65994 30.937 6.11994L30.277 6.20994ZM51.0378 11.6999C51.1978 11.7599 51.2978 11.8699 51.3378 12.0299C51.3978 12.1699 51.3978 12.3199 51.3378 12.4799C50.7378 13.8799 50.1078 15.1699 49.4478 16.3499C48.7878 17.5299 48.1078 18.4699 47.4078 19.1699C46.7478 19.8699 46.1378 20.3399 45.5778 20.5799C45.0178 20.8199 44.5278 20.9399 44.1078 20.9399C44.0078 20.9399 43.9078 20.9399 43.8078 20.9399C43.7078 20.9199 43.6078 20.8999 43.5078 20.8799C43.1078 20.7799 42.6778 20.5399 42.2178 20.1599C41.7778 19.7799 41.3978 19.1099 41.0778 18.1499C40.5778 16.6699 40.4178 14.7299 40.5978 12.3299C40.6578 11.0499 41.0578 10.2799 41.7978 10.0199C42.2778 9.85994 42.7078 9.98994 43.0878 10.4099C43.2878 10.6499 43.4478 10.9799 43.5678 11.3999C43.6878 11.8199 43.7278 12.3399 43.6878 12.9599C43.6478 13.5799 43.5178 14.2999 43.2978 15.1199C43.0778 15.9399 42.7278 16.8499 42.2478 17.8499C42.3678 18.2299 42.5478 18.6099 42.7878 18.9899C43.0478 19.3699 43.3778 19.6099 43.7778 19.7099C44.5578 19.8899 45.4878 19.4399 46.5678 18.3599C47.2078 17.7199 47.8278 16.8299 48.4278 15.6899C49.0478 14.5499 49.6478 13.3199 50.2278 11.9999C50.3078 11.8399 50.4178 11.7299 50.5578 11.6699C50.7178 11.6099 50.8778 11.6199 51.0378 11.6999ZM41.7978 15.7799C42.1778 14.7599 42.3978 13.8899 42.4578 13.1699C42.5178 12.4499 42.4778 11.8999 42.3378 11.5199C42.2978 11.4199 42.2578 11.3499 42.2178 11.3099C42.1978 11.2499 42.1778 11.2099 42.1578 11.1899C42.1178 11.2299 42.0478 11.3499 41.9478 11.5499C41.8678 11.7299 41.8078 12.0199 41.7678 12.4199C41.7278 13.0399 41.7078 13.6299 41.7078 14.1899C41.7278 14.7499 41.7578 15.2799 41.7978 15.7799ZM65.1058 11.9399C65.2058 12.0799 65.2358 12.2299 65.1958 12.3899C65.1758 12.5299 65.0958 12.6499 64.9558 12.7499C64.4958 13.0899 64.0458 13.4099 63.6058 13.7099C63.1658 14.0099 62.7458 14.2199 62.3458 14.3399C61.5658 14.5599 60.8458 14.6099 60.1858 14.4899C59.7258 14.4099 59.3058 14.2599 58.9258 14.0399C58.5658 13.8199 58.2358 13.5799 57.9358 13.3199C57.6558 13.0399 57.4058 12.7499 57.1858 12.4499C56.9658 12.1499 56.7658 11.8699 56.5858 11.6099L56.2858 11.1899C56.0458 11.6299 55.8058 12.2599 55.5658 13.0799C55.3458 13.8799 55.1358 14.8299 54.9358 15.9299C54.8158 16.6699 54.7158 17.3499 54.6358 17.9699C54.5758 18.5899 54.5258 19.0899 54.4858 19.4699C54.5058 19.8699 54.4958 20.1499 54.4558 20.3099C54.4358 20.4699 54.3758 20.5999 54.2758 20.6999C54.1358 20.7999 53.9958 20.8499 53.8558 20.8499C53.7958 20.8499 53.7058 20.8299 53.5858 20.7899C53.5458 20.7499 53.4858 20.6999 53.4058 20.6399C53.3458 20.5799 53.2958 20.4899 53.2558 20.3699C53.2358 20.2699 53.2258 20.1399 53.2258 19.9799C53.2458 19.7999 53.2658 19.6199 53.2858 19.4399C53.2658 19.0799 53.2258 18.5999 53.1658 17.9999C53.1258 17.3999 53.0558 16.7699 52.9558 16.1099C52.8758 15.4499 52.7758 14.7999 52.6558 14.1599C52.5358 13.4999 52.3858 12.9199 52.2058 12.4199C52.1458 12.2599 52.1458 12.1099 52.2058 11.9699C52.2858 11.8299 52.4058 11.7299 52.5658 11.6699C52.7258 11.6099 52.8758 11.6199 53.0158 11.6999C53.1558 11.7599 53.2558 11.8699 53.3158 12.0299C53.4758 12.4299 53.5858 12.8999 53.6458 13.4399C53.7258 13.9599 53.8158 14.4499 53.9158 14.9099C54.3558 12.5899 54.9058 11.0099 55.5658 10.1699C55.6858 10.0099 55.8058 9.90994 55.9258 9.86994C56.0658 9.80994 56.1758 9.77994 56.2558 9.77994C56.5358 9.79994 56.7658 9.91994 56.9458 10.1399C57.1458 10.3399 57.3558 10.5999 57.5758 10.9199C57.7158 11.1399 57.8758 11.3799 58.0558 11.6399C58.2558 11.8999 58.4658 12.1399 58.6858 12.3599C58.9258 12.5799 59.1858 12.7799 59.4658 12.9599C59.7458 13.1199 60.0558 13.2299 60.3958 13.2899C60.9358 13.3899 61.5258 13.2999 62.1658 13.0199C62.8258 12.7199 63.5258 12.3099 64.2658 11.7899C64.4058 11.6899 64.5558 11.6599 64.7158 11.6999C64.8758 11.7199 65.0058 11.7999 65.1058 11.9399Z" fill="#F5F1EA"/>
</svg>
