<svg width="72" height="29" viewBox="0 0 72 29" fill="none" xmlns="http://www.w3.org/2000/svg">
<path d="M2.37006 21.03H2.16006C1.60006 20.93 1.16006 20.46 0.840059 19.62C0.520059 18.78 0.300059 17.51 0.180059 15.81C0.0600586 14.17 0.0500586 12.2 0.150059 9.89997C0.250059 7.59997 0.440059 5.02997 0.720059 2.18997C0.840059 1.02997 1.17006 0.35997 1.71006 0.17997C2.07006 0.0599693 2.40006 0.159969 2.70006 0.47997C3.00006 0.81997 3.21006 1.35997 3.33006 2.09997C3.47006 2.81997 3.51006 3.66997 3.45006 4.64997C3.41006 5.48997 3.24006 6.58997 2.94006 7.94997C2.66006 9.28997 2.12006 10.85 1.32006 12.63C1.32006 12.65 1.31006 12.67 1.29006 12.69C1.29006 12.69 1.29006 12.7 1.29006 12.72C1.29006 13.24 1.29006 13.73 1.29006 14.19C1.31006 14.65 1.33006 15.1 1.35006 15.54C1.41006 16.48 1.49006 17.23 1.59006 17.79C1.69006 18.35 1.79006 18.78 1.89006 19.08C2.01006 19.38 2.11006 19.58 2.19006 19.68C2.27006 19.78 2.32006 19.83 2.34006 19.83C2.38006 19.83 2.50006 19.74 2.70006 19.56C2.90006 19.38 3.17006 18.92 3.51006 18.18C3.79006 17.52 4.07006 16.73 4.35006 15.81C4.65006 14.87 4.94006 13.81 5.22006 12.63C5.28006 12.35 5.46006 12.19 5.76006 12.15C5.76006 12.15 5.86006 12.13 6.06006 12.09C6.26006 12.05 6.51006 12.01 6.81006 11.97C7.13006 11.93 7.48006 11.89 7.86006 11.85C8.26006 11.79 8.65006 11.75 9.03006 11.73C9.19006 11.71 9.33006 11.76 9.45006 11.88C9.57006 12 9.64006 12.14 9.66006 12.3C9.68006 12.46 9.63006 12.6 9.51006 12.72C9.39006 12.84 9.25006 12.91 9.09006 12.93C8.57006 12.97 8.04006 13.04 7.50006 13.14C6.98006 13.24 6.58006 13.3 6.30006 13.32C6.02006 14.5 5.73006 15.56 5.43006 16.5C5.13006 17.44 4.82006 18.23 4.50006 18.87C3.80006 20.31 3.09006 21.03 2.37006 21.03ZM2.01006 1.70997L1.92006 2.30997C1.66006 4.76997 1.48006 7.03997 1.38006 9.11997C1.68006 8.11997 1.89006 7.22997 2.01006 6.44997C2.15006 5.66997 2.23006 5.00997 2.25006 4.46997C2.29006 3.76997 2.28006 3.19997 2.22006 2.75997C2.16006 2.29997 2.09006 1.94997 2.01006 1.70997ZM21.5256 11.73C21.6856 11.79 21.7856 11.9 21.8256 12.06C21.8856 12.2 21.8856 12.35 21.8256 12.51C21.2256 13.91 20.5956 15.2 19.9356 16.38C19.2756 17.56 18.5956 18.5 17.8956 19.2C17.2356 19.9 16.6256 20.37 16.0656 20.61C15.5056 20.85 15.0156 20.97 14.5956 20.97C14.4956 20.97 14.3956 20.97 14.2956 20.97C14.1956 20.95 14.0956 20.93 13.9956 20.91C13.5956 20.81 13.1656 20.57 12.7056 20.19C12.2656 19.81 11.8856 19.14 11.5656 18.18C11.0656 16.7 10.9056 14.76 11.0856 12.36C11.1456 11.08 11.5456 10.31 12.2856 10.05C12.7656 9.88997 13.1956 10.02 13.5756 10.44C13.7756 10.68 13.9356 11.01 14.0556 11.43C14.1756 11.85 14.2156 12.37 14.1756 12.99C14.1356 13.61 14.0056 14.33 13.7856 15.15C13.5656 15.97 13.2156 16.88 12.7356 17.88C12.8556 18.26 13.0356 18.64 13.2756 19.02C13.5356 19.4 13.8656 19.64 14.2656 19.74C15.0456 19.92 15.9756 19.47 17.0556 18.39C17.6956 17.75 18.3156 16.86 18.9156 15.72C19.5356 14.58 20.1356 13.35 20.7156 12.03C20.7956 11.87 20.9056 11.76 21.0456 11.7C21.2056 11.64 21.3656 11.65 21.5256 11.73ZM12.2856 15.81C12.6656 14.79 12.8856 13.92 12.9456 13.2C13.0056 12.48 12.9656 11.93 12.8256 11.55C12.7856 11.45 12.7456 11.38 12.7056 11.34C12.6856 11.28 12.6656 11.24 12.6456 11.22C12.6056 11.26 12.5356 11.38 12.4356 11.58C12.3556 11.76 12.2956 12.05 12.2556 12.45C12.2156 13.07 12.1956 13.66 12.1956 14.22C12.2156 14.78 12.2456 15.31 12.2856 15.81ZM33.0736 11.76C33.2336 11.84 33.3336 11.96 33.3736 12.12C33.4336 12.26 33.4236 12.41 33.3436 12.57C32.9436 13.35 32.4636 14.15 31.9036 14.97C31.3636 15.77 30.7436 16.5 30.0436 17.16C29.4236 17.74 28.7936 18.27 28.1536 18.75C27.5136 19.23 26.8736 19.7 26.2336 20.16C25.8336 20.46 25.4336 20.75 25.0336 21.03C24.6336 21.33 24.2436 21.64 23.8636 21.96C23.7636 23.26 23.5836 24.33 23.3236 25.17C22.6436 27.31 21.8336 28.43 20.8936 28.53H20.7736C20.3136 28.53 19.9736 28.31 19.7536 27.87C19.4936 27.41 19.4236 26.77 19.5436 25.95C19.6636 25.13 20.0536 24.29 20.7136 23.43C21.0136 23.03 21.3336 22.66 21.6736 22.32C21.9936 22 22.3436 21.68 22.7236 21.36C22.7836 20.4 22.8136 19.35 22.8136 18.21C22.8336 17.05 22.8436 15.83 22.8436 14.55V11.73C22.8636 10.31 22.8936 8.87997 22.9336 7.43997C22.9736 5.97997 23.0736 4.55997 23.2336 3.17997C23.4136 1.35997 23.8436 0.34997 24.5236 0.149971C24.6236 0.12997 24.7836 0.12997 25.0036 0.149971C25.2236 0.16997 25.4436 0.32997 25.6636 0.62997C25.9636 1.02997 26.1736 1.62997 26.2936 2.42997C26.4336 3.22997 26.4536 4.10997 26.3536 5.06997C26.2936 5.90997 26.1036 6.93997 25.7836 8.15997C25.4636 9.35997 24.8836 10.65 24.0436 12.03V14.04L27.6736 13.47C27.8336 13.43 27.9736 13.47 28.0936 13.59C28.2336 13.69 28.3136 13.82 28.3336 13.98C28.3736 14.14 28.3436 14.29 28.2436 14.43C28.1436 14.55 28.0136 14.63 27.8536 14.67L24.0436 15.24C24.0436 16.16 24.0436 17.05 24.0436 17.91C24.0436 18.77 24.0236 19.58 23.9836 20.34C24.2236 20.14 24.4736 19.95 24.7336 19.77C24.9936 19.59 25.2636 19.4 25.5436 19.2C26.1636 18.76 26.7836 18.29 27.4036 17.79C28.0236 17.27 28.6236 16.72 29.2036 16.14C29.8036 15.56 30.3536 14.93 30.8536 14.25C31.3736 13.57 31.8436 12.83 32.2636 12.03C32.3436 11.87 32.4536 11.77 32.5936 11.73C32.7536 11.67 32.9136 11.68 33.0736 11.76ZM24.4036 3.29997C24.3036 4.25997 24.2336 5.24997 24.1936 6.26997C24.1536 7.26997 24.1136 8.27997 24.0736 9.29997C24.4136 8.53997 24.6736 7.76997 24.8536 6.98997C25.0336 6.18997 25.1436 5.40997 25.1836 4.64997C25.2236 3.80997 25.1936 3.12997 25.0936 2.60997C24.9936 2.08997 24.8936 1.71997 24.7936 1.49997C24.7336 1.61997 24.6636 1.81997 24.5836 2.09997C24.5236 2.37997 24.4636 2.77997 24.4036 3.29997ZM22.1836 24.81C22.3236 24.37 22.4436 23.82 22.5436 23.16C22.3836 23.32 22.2336 23.48 22.0936 23.64C21.9536 23.82 21.8136 23.99 21.6736 24.15C21.1336 24.87 20.8136 25.6 20.7136 26.34C20.6736 26.62 20.6736 26.84 20.7136 27C20.7336 27.16 20.7636 27.26 20.8036 27.3C20.8836 27.28 21.0536 27.11 21.3136 26.79C21.5536 26.47 21.8436 25.81 22.1836 24.81ZM45.6444 11.85C45.7644 11.97 45.8144 12.12 45.7944 12.3C45.7944 12.46 45.7344 12.59 45.6144 12.69C45.2744 13.01 44.9044 13.28 44.5044 13.5C44.1044 13.72 43.6844 13.91 43.2444 14.07C42.8244 14.21 42.4044 14.31 41.9844 14.37C41.5644 14.43 41.1644 14.46 40.7844 14.46V14.52C40.7844 15.28 40.7044 16.03 40.5444 16.77C40.3844 17.49 40.1644 18.14 39.8844 18.72C39.5244 19.44 39.0944 20 38.5944 20.4C38.0944 20.78 37.5544 20.97 36.9744 20.97C35.7344 20.97 34.7644 20.37 34.0644 19.17C33.8044 18.71 33.6044 18.19 33.4644 17.61C33.3244 17.03 33.2544 16.42 33.2544 15.78C33.2544 15.14 33.3444 14.47 33.5244 13.77C33.7044 13.07 33.9344 12.48 34.2144 12C34.2944 11.84 34.4044 11.74 34.5444 11.7C34.7044 11.66 34.8644 11.68 35.0244 11.76C35.1844 11.86 35.2844 11.99 35.3244 12.15C35.3644 12.29 35.3444 12.44 35.2644 12.6C35.0244 13 34.8344 13.47 34.6944 14.01C34.5744 14.53 34.5044 15.07 34.4844 15.63C34.4844 16.17 34.5344 16.7 34.6344 17.22C34.7344 17.74 34.8944 18.19 35.1144 18.57C35.5944 19.37 36.2144 19.77 36.9744 19.77C37.1944 19.77 37.3944 19.72 37.5744 19.62C37.7744 19.5 37.9544 19.36 38.1144 19.2C38.2744 19.04 38.4044 18.87 38.5044 18.69C38.6244 18.51 38.7244 18.35 38.8044 18.21C39.0444 17.69 39.2344 17.11 39.3744 16.47C39.5144 15.81 39.5844 15.16 39.5844 14.52V14.34C39.0044 14.26 38.4744 14.16 37.9944 14.04C37.5344 13.92 37.1844 13.79 36.9444 13.65C36.3844 13.35 36.0244 13 35.8644 12.6C35.7244 12.2 35.7044 11.83 35.8044 11.49C35.8844 11.09 36.1244 10.74 36.5244 10.44C36.9444 10.18 37.3944 10.05 37.8744 10.05C38.3544 10.05 38.7844 10.18 39.1644 10.44C39.5644 10.7 39.8944 11.06 40.1544 11.52C40.4144 11.98 40.5944 12.55 40.6944 13.23C40.7344 13.23 40.7544 13.24 40.7544 13.26C40.7744 13.26 40.7944 13.26 40.8144 13.26C41.4544 13.28 42.1444 13.17 42.8844 12.93C43.6444 12.67 44.2844 12.3 44.8044 11.82C44.9244 11.7 45.0644 11.65 45.2244 11.67C45.4044 11.67 45.5444 11.73 45.6444 11.85ZM37.5144 12.6C37.6744 12.68 37.9244 12.77 38.2644 12.87C38.6044 12.95 39.0044 13.03 39.4644 13.11C39.3844 12.73 39.2644 12.39 39.1044 12.09C38.8044 11.53 38.3944 11.25 37.8744 11.25C37.5944 11.25 37.3744 11.31 37.2144 11.43C37.0744 11.53 36.9844 11.65 36.9444 11.79C36.8844 12.07 37.0744 12.34 37.5144 12.6ZM59.6619 11.97C59.7619 12.11 59.7919 12.26 59.7519 12.42C59.7319 12.56 59.6519 12.68 59.5119 12.78C59.0519 13.12 58.6019 13.44 58.1619 13.74C57.7219 14.04 57.3019 14.25 56.9019 14.37C56.1219 14.59 55.4019 14.64 54.7419 14.52C54.2819 14.44 53.8619 14.29 53.4819 14.07C53.1219 13.85 52.7919 13.61 52.4919 13.35C52.2119 13.07 51.9619 12.78 51.7419 12.48C51.5219 12.18 51.3219 11.9 51.1419 11.64L50.8419 11.22C50.6019 11.66 50.3619 12.29 50.1219 13.11C49.9019 13.91 49.6919 14.86 49.4919 15.96C49.3719 16.7 49.2719 17.38 49.1919 18C49.1319 18.62 49.0819 19.12 49.0419 19.5C49.0619 19.9 49.0519 20.18 49.0119 20.34C48.9919 20.5 48.9319 20.63 48.8319 20.73C48.6919 20.83 48.5519 20.88 48.4119 20.88C48.3519 20.88 48.2619 20.86 48.1419 20.82C48.1019 20.78 48.0419 20.73 47.9619 20.67C47.9019 20.61 47.8519 20.52 47.8119 20.4C47.7919 20.3 47.7819 20.17 47.7819 20.01C47.8019 19.83 47.8219 19.65 47.8419 19.47C47.8219 19.11 47.7819 18.63 47.7219 18.03C47.6819 17.43 47.6119 16.8 47.5119 16.14C47.4319 15.48 47.3319 14.83 47.2119 14.19C47.0919 13.53 46.9419 12.95 46.7619 12.45C46.7019 12.29 46.7019 12.14 46.7619 12C46.8419 11.86 46.9619 11.76 47.1219 11.7C47.2819 11.64 47.4319 11.65 47.5719 11.73C47.7119 11.79 47.8119 11.9 47.8719 12.06C48.0319 12.46 48.1419 12.93 48.2019 13.47C48.2819 13.99 48.3719 14.48 48.4719 14.94C48.9119 12.62 49.4619 11.04 50.1219 10.2C50.2419 10.04 50.3619 9.93997 50.4819 9.89997C50.6219 9.83997 50.7319 9.80997 50.8119 9.80997C51.0919 9.82997 51.3219 9.94997 51.5019 10.17C51.7019 10.37 51.9119 10.63 52.1319 10.95C52.2719 11.17 52.4319 11.41 52.6119 11.67C52.8119 11.93 53.0219 12.17 53.2419 12.39C53.4819 12.61 53.7419 12.81 54.0219 12.99C54.3019 13.15 54.6119 13.26 54.9519 13.32C55.4919 13.42 56.0819 13.33 56.7219 13.05C57.3819 12.75 58.0819 12.34 58.8219 11.82C58.9619 11.72 59.1119 11.69 59.2719 11.73C59.4319 11.75 59.5619 11.83 59.6619 11.97ZM71.3322 11.73C71.4922 11.79 71.5922 11.9 71.6322 12.06C71.6922 12.2 71.6922 12.35 71.6322 12.51C71.0322 13.91 70.4022 15.2 69.7422 16.38C69.0822 17.56 68.4022 18.5 67.7022 19.2C67.0422 19.9 66.4322 20.37 65.8722 20.61C65.3122 20.85 64.8222 20.97 64.4022 20.97C64.3022 20.97 64.2022 20.97 64.1022 20.97C64.0022 20.95 63.9022 20.93 63.8022 20.91C63.4022 20.81 62.9722 20.57 62.5122 20.19C62.0722 19.81 61.6922 19.14 61.3722 18.18C60.8722 16.7 60.7122 14.76 60.8922 12.36C60.9522 11.08 61.3522 10.31 62.0922 10.05C62.5722 9.88997 63.0022 10.02 63.3822 10.44C63.5822 10.68 63.7422 11.01 63.8622 11.43C63.9822 11.85 64.0222 12.37 63.9822 12.99C63.9422 13.61 63.8122 14.33 63.5922 15.15C63.3722 15.97 63.0222 16.88 62.5422 17.88C62.6622 18.26 62.8422 18.64 63.0822 19.02C63.3422 19.4 63.6722 19.64 64.0722 19.74C64.8522 19.92 65.7822 19.47 66.8622 18.39C67.5022 17.75 68.1222 16.86 68.7222 15.72C69.3422 14.58 69.9422 13.35 70.5222 12.03C70.6022 11.87 70.7122 11.76 70.8522 11.7C71.0122 11.64 71.1722 11.65 71.3322 11.73ZM62.0922 15.81C62.4722 14.79 62.6922 13.92 62.7522 13.2C62.8122 12.48 62.7722 11.93 62.6322 11.55C62.5922 11.45 62.5522 11.38 62.5122 11.34C62.4922 11.28 62.4722 11.24 62.4522 11.22C62.4122 11.26 62.3422 11.38 62.2422 11.58C62.1622 11.76 62.1022 12.05 62.0622 12.45C62.0222 13.07 62.0022 13.66 62.0022 14.22C62.0222 14.78 62.0522 15.31 62.0922 15.81Z" fill="#F5F1EA"/>
</svg>
