<svg width="40" height="40" viewBox="0 0 40 40" fill="none" xmlns="http://www.w3.org/2000/svg">
<path d="M16.25 5.1733V14.6966C16.25 15.1891 16.153 15.6767 15.9645 16.1317C15.7761 16.5867 15.4999 17.0001 15.1516 17.3483L8.33332 24.1666M16.25 5.1733C15.8316 5.21164 15.415 5.25664 15 5.30997M16.25 5.1733C18.7446 4.94158 21.2554 4.94158 23.75 5.1733M8.33332 24.1666L9.61665 23.845C13.105 22.983 16.7863 23.3925 20 25C23.2136 26.6075 26.895 27.017 30.3833 26.155L33 25.5M8.33332 24.1666L4.66332 27.8383C2.60832 29.89 3.57832 33.3666 6.44165 33.855C10.8483 34.6083 15.3783 35 20 35C24.5436 35.0016 29.0793 34.6185 33.5583 33.855C36.42 33.3666 37.39 29.89 35.3366 27.8366L33 25.5M23.75 5.1733V14.6966C23.75 15.6916 24.145 16.6466 24.8483 17.3483L33 25.5M23.75 5.1733C24.1683 5.21164 24.585 5.25664 25 5.30997" stroke="#C5A167" stroke-width="2" stroke-linecap="round" stroke-linejoin="round"/>
</svg>
