<svg width="27" height="27" viewBox="0 0 27 27" fill="none" xmlns="http://www.w3.org/2000/svg">
<circle cx="13.5" cy="13.5" r="13.5" fill="#E3E3E3"/>
<path fill-rule="evenodd" clip-rule="evenodd" d="M15.6728 9.32033C15.6673 9.32596 15.6622 9.33195 15.6576 9.33847C15.4891 9.56846 15.337 9.80778 15.1959 10.0529C15.2352 9.82997 15.2642 9.6035 15.2876 9.38232C15.2957 9.30448 15.3014 9.22682 15.3047 9.14951C15.313 9.13419 15.3192 9.11746 15.3227 9.09967C15.4667 8.37465 15.7711 7.675 15.8392 6.93677C15.8602 6.70907 15.863 6.42889 15.7386 6.2269C15.6439 6.07281 15.4939 5.93897 15.2935 6.04499C15.1457 6.12318 15.0457 6.31425 14.9907 6.46094C14.8687 6.78638 14.8669 7.17575 14.8757 7.51827C14.8914 8.13093 15.0024 8.7288 14.9374 9.34534C14.902 9.6794 14.8534 10.0265 14.7741 10.3528C14.6958 10.6754 14.5898 10.9736 14.548 11.305C14.5468 11.314 14.5464 11.323 14.5466 11.332C14.466 11.5038 14.386 11.6761 14.305 11.8474L14.2997 11.8537C14.2777 11.88 14.2645 11.9108 14.2601 11.9423C14.0507 12.3826 13.8323 12.8176 13.5765 13.2312C13.4932 13.3659 13.4056 13.4982 13.3158 13.629C13.3021 13.3777 13.2984 13.1256 13.3125 12.8801C13.3368 12.4585 13.3921 12.0013 13.5215 11.5919C13.5257 11.582 13.5289 11.5718 13.5314 11.5612C13.5446 11.5204 13.5587 11.4802 13.5736 11.4404C13.8207 10.7815 14.1956 10.1769 14.292 9.4709C14.3381 9.13295 14.3598 8.79677 14.2555 8.46746C14.2347 8.40195 14.2088 8.3139 14.1678 8.24152C14.1257 8.16773 14.0687 8.10874 13.9977 8.07546C13.7519 7.95958 13.552 8.11931 13.466 8.33662C13.3561 8.61433 13.3245 8.95157 13.2769 9.24513C13.1543 10.0029 13.1513 10.7476 13.1822 11.4971C13.0469 11.9316 12.9865 12.4141 12.961 12.8598C12.9379 13.2606 12.9594 13.6787 12.9969 14.0827C12.6473 14.5747 12.302 15.0664 12.0768 15.6199C12.0692 15.3036 12.1026 14.9829 12.1511 14.6647C12.1569 14.6467 12.1601 14.6277 12.1599 14.6078C12.2065 14.3111 12.2652 14.0172 12.3147 13.7315C12.4017 13.2286 12.5017 12.6851 12.3753 12.1792C12.2393 11.6352 11.8908 11.043 11.5081 10.6383C11.4329 10.5589 11.2116 10.4034 11.0251 10.3651C10.9132 10.3423 10.8111 10.3581 10.7331 10.4106C10.6753 10.4495 10.6264 10.509 10.5996 10.6008C10.5478 10.7786 10.589 10.947 10.6725 11.1041C10.7366 11.2247 10.827 11.3378 10.8948 11.4431C11.1117 11.7807 11.2989 12.1612 11.4417 12.5356C11.6458 13.0704 11.757 13.6565 11.789 14.2271C11.7959 14.3509 11.8017 14.4749 11.807 14.5988C11.7298 15.1076 11.6872 15.6236 11.77 16.1207C11.7818 16.1913 11.7961 16.2618 11.8123 16.3319C11.82 16.3653 11.8283 16.3988 11.8369 16.4322C11.8396 16.4425 11.8431 16.4521 11.8473 16.4615C11.7637 17.0012 11.7691 17.5419 11.8186 18.082C11.6934 17.8636 11.5803 17.6375 11.4287 17.4353C11.3317 17.3059 11.2306 17.1803 11.1277 17.0562C10.9656 16.5626 10.815 16.0644 10.6473 15.5729C10.46 15.0231 10.3295 14.4388 10.088 13.9092C9.95049 13.6077 9.70148 13.4639 9.48435 13.4966C9.33484 13.5192 9.18057 13.6218 9.07667 13.8504C8.9733 14.0779 8.98844 14.3412 9.04233 14.5777C9.16895 15.1333 9.58438 15.597 9.89062 16.0612C10.1699 16.4846 10.5061 16.8579 10.8277 17.2451L10.8425 17.2629C10.9465 17.3885 11.0488 17.5158 11.1469 17.6467C11.3556 17.9249 11.4893 18.25 11.686 18.5351C11.7645 18.6492 11.8427 18.7646 11.9183 18.8818C12.0181 19.5401 12.15 20.1959 12.2319 20.8459C12.2441 20.9424 12.3323 21.0108 12.4286 20.9986C12.5251 20.9865 12.5934 20.8984 12.5813 20.8019C12.5647 20.6703 12.5461 20.5388 12.5258 20.4067C12.5265 20.4007 12.5267 20.3946 12.5267 20.3884C12.5267 19.5915 12.4832 18.8255 12.6494 18.0387C12.6885 17.8532 12.7128 17.6592 12.7819 17.4816C12.8164 17.3925 12.8624 17.3071 12.9136 17.2244C13.4164 16.8329 13.9528 16.483 14.4832 16.1244C14.7324 15.9561 14.977 15.7819 15.1425 15.526C15.1732 15.4788 15.2186 15.4142 15.2434 15.3489C15.2732 15.271 15.2773 15.1914 15.2496 15.1187C15.2038 14.9988 15.105 14.9385 14.9724 14.9338C14.8129 14.928 14.5794 15.0352 14.5094 15.0731C14.0313 15.333 13.6101 15.7002 13.2567 16.1114C13.1029 16.2903 12.9844 16.4912 12.8523 16.6858C12.7829 16.7883 12.7086 16.8926 12.6401 17.0002C12.6361 17.0056 12.6325 17.0113 12.6294 17.0171C12.5609 17.1256 12.4989 17.2374 12.4534 17.3543C12.3777 17.5494 12.3478 17.7618 12.3048 17.9658C12.2655 18.1514 12.2375 18.3356 12.2175 18.5196C12.1217 17.7951 12.0849 17.0685 12.225 16.344C12.396 15.4607 12.9333 14.7686 13.4433 14.0559C13.447 14.0538 13.4505 14.0515 13.4541 14.0492C13.7855 13.8228 14.1201 13.6044 14.4954 13.4443C14.5903 13.4038 14.6873 13.3665 14.7854 13.3316C14.7933 13.3295 14.8011 13.3267 14.8085 13.3235C15.2072 13.1837 15.6272 13.0822 16.0283 12.9676C16.5262 12.8253 16.9911 12.6059 17.3984 12.2826C17.5684 12.1478 17.76 11.9818 17.838 11.772C17.9461 11.4818 17.7661 11.1194 17.4527 11.0657C17.1381 11.0118 16.6944 11.1742 16.4286 11.3254C15.7031 11.7388 15.1799 12.3868 14.6359 13.0113C14.5415 13.0453 14.4485 13.0814 14.3571 13.1203C14.2085 13.1837 14.0657 13.2555 13.9267 13.3334C14.1756 12.9206 14.3888 12.4875 14.595 12.0503C14.9634 11.6213 15.4051 11.2789 15.8616 10.9539C16.0386 10.879 16.2161 10.8052 16.395 10.7341C16.4911 10.6959 16.5875 10.6585 16.6845 10.6221C17.2757 10.4002 17.9037 10.2345 18.4621 9.93827C18.7766 9.7715 19.1269 9.61477 19.3891 9.36717C19.5511 9.21396 19.6726 9.04279 19.6492 8.81209C19.6402 8.72352 19.5886 8.65325 19.4865 8.61961C19.4405 8.60447 19.3755 8.59813 19.3053 8.60218C19.1894 8.6087 19.054 8.64022 19.026 8.64603C18.644 8.7258 18.2953 8.91371 17.9634 9.11112C17.6545 9.29462 17.3236 9.44519 17.0256 9.64594C16.746 9.83455 16.504 10.0725 16.2286 10.2664C16.0479 10.3935 15.8661 10.5191 15.6862 10.6473C15.6772 10.6525 15.6687 10.6585 15.661 10.6652C15.4405 10.8227 15.2234 10.9838 15.0154 11.1557C15.2804 10.6054 15.5648 10.0652 15.9262 9.56775C15.9329 9.56089 15.9391 9.55349 15.9447 9.54556L15.9736 9.50488C15.987 9.49168 15.9982 9.476 16.007 9.45822C16.292 9.06181 16.6325 8.64638 17.0309 8.37501C17.3586 8.15153 17.7631 7.95306 18.0951 7.69736C18.4638 7.41331 18.7456 7.06128 18.7868 6.55674C18.7921 6.49247 18.7752 6.41938 18.753 6.36056C18.6718 6.14466 18.5494 6.04921 18.4235 6.01452C18.3013 5.98089 18.1622 6.00713 18.0227 6.07827C17.8843 6.14889 17.742 6.26388 17.6207 6.36303C17.5603 6.41251 17.5023 6.46482 17.4467 6.51941C17.0376 6.92128 16.7754 7.3883 16.4841 7.87769C16.2057 8.34542 15.9084 8.7804 15.6981 9.28476L15.6728 9.32033ZM14.8666 15.3027C14.7861 15.3269 14.7086 15.3658 14.6776 15.3827C14.2368 15.6222 13.8496 15.9619 13.5238 16.341L13.5104 16.3569C13.7674 16.1802 14.0275 16.0075 14.2862 15.8326C14.4959 15.6909 14.7076 15.5501 14.8469 15.3348C14.852 15.3269 14.859 15.3154 14.8666 15.3027ZM10.5264 16.3343C10.4573 16.1177 10.3872 15.9015 10.314 15.6865C10.1303 15.1478 10.0042 14.5744 9.76752 14.0554C9.73248 13.9786 9.6874 13.9173 9.63544 13.8786C9.60375 13.8552 9.57046 13.8397 9.53683 13.8448C9.47977 13.8534 9.43698 13.909 9.39735 13.9962C9.32586 14.1535 9.34857 14.3359 9.38573 14.4995C9.50319 15.0144 9.90083 15.4369 10.1847 15.8673C10.2914 16.0293 10.4068 16.1838 10.5264 16.3343ZM10.9351 10.7094C10.9154 10.7908 10.9451 10.8663 10.9835 10.9387C11.043 11.0505 11.1281 11.1548 11.191 11.2525C11.421 11.6104 11.6194 12.0133 11.7709 12.4101C11.8818 12.701 11.9672 13.0062 12.0285 13.3161C12.0843 12.9662 12.1188 12.6061 12.0334 12.2646C11.9112 11.7756 11.5964 11.2441 11.2522 10.8804C11.2124 10.8383 11.1073 10.7635 11.0052 10.7253C10.9846 10.7177 10.9534 10.7121 10.9351 10.7094ZM15.275 12.8109C15.4951 12.7487 15.7159 12.6906 15.9317 12.629C16.3848 12.4995 16.8087 12.301 17.1795 12.0068C17.3019 11.9096 17.4518 11.8004 17.508 11.6493C17.5432 11.5545 17.4956 11.4304 17.3931 11.4128C17.1491 11.3709 16.8092 11.514 16.603 11.6315C16.0787 11.9302 15.6684 12.3607 15.275 12.8109ZM13.5182 10.6774C13.702 10.2732 13.882 9.86995 13.9429 9.42317C13.982 9.13718 14.0081 8.8526 13.9197 8.57383C13.907 8.53385 13.8933 8.48173 13.8714 8.43488C13.8642 8.41939 13.8617 8.40054 13.8478 8.39403C13.8371 8.3891 13.8318 8.40089 13.8256 8.40847C13.8123 8.4252 13.8017 8.44545 13.7934 8.46623C13.6925 8.72123 13.6682 9.03187 13.6247 9.30149C13.5499 9.76358 13.5215 10.2209 13.5182 10.6774ZM19.2787 8.95808C19.1971 8.96759 19.1172 8.98679 19.098 8.99084C18.7541 9.06251 18.4422 9.23615 18.1432 9.41384C17.8403 9.59399 17.5148 9.74104 17.2225 9.9381C17.1189 10.0078 17.0207 10.0846 16.9238 10.1632C17.3896 10.004 17.8649 9.85639 18.2969 9.6271C18.5843 9.47477 18.9076 9.33723 19.1471 9.11112C19.1984 9.06269 19.2505 9.01549 19.2787 8.95808ZM16.7239 8.1621C16.7597 8.13498 16.796 8.10892 16.8324 8.08391C17.155 7.86413 17.5536 7.66989 17.8802 7.41824C18.1703 7.19476 18.4033 6.92497 18.4357 6.52804C18.4369 6.51342 18.4283 6.49792 18.4233 6.48454C18.396 6.41216 18.3723 6.36567 18.33 6.35422C18.2842 6.34155 18.2349 6.3655 18.1826 6.39209C18.0653 6.45196 17.9465 6.55164 17.8436 6.63581C17.7915 6.67843 17.7415 6.72369 17.6936 6.77071C17.3067 7.15074 17.0622 7.59505 16.7868 8.05785C16.7659 8.09289 16.7449 8.12758 16.7239 8.1621ZM15.422 6.3868C15.4102 6.40072 15.3998 6.41709 15.39 6.4333C15.36 6.48296 15.3378 6.53808 15.3204 6.58474C15.2139 6.86897 15.2202 7.21009 15.2278 7.50928C15.232 7.67165 15.2424 7.83314 15.2545 7.9941C15.3588 7.6352 15.4542 7.27489 15.4884 6.90437C15.503 6.74693 15.5245 6.55111 15.4387 6.41146C15.4345 6.40459 15.4284 6.39579 15.422 6.3868Z" fill="#C5A167"/>
</svg>
