<svg width="27" height="27" viewBox="0 0 27 27" fill="none" xmlns="http://www.w3.org/2000/svg">
<circle cx="13.5" cy="13.5" r="13.5" fill="#E3E3E3"/>
<path d="M7.17412 13.8937C7.52576 14.0048 7.89447 14.0441 8.25293 14.1295C9.08765 14.3295 9.9309 14.4953 10.7537 14.7448C11.0501 14.8223 11.3324 14.9463 11.5901 15.1122C11.6527 15.1642 11.7195 15.2111 11.7898 15.2523C11.9627 15.3349 12.1028 15.4734 12.1875 15.6453C12.2151 15.6919 12.2459 15.7364 12.2797 15.7786C12.4344 15.9945 12.5532 16.234 12.6314 16.4878C12.7662 17.0193 12.9164 17.5491 13.0154 18.0891C13.041 18.2309 13.0718 18.3693 13.0957 18.5112C13.2151 19.1947 13.3893 19.8783 13.4592 20.5841C13.4709 20.6785 13.4886 20.7721 13.5122 20.8643C13.5122 20.89 13.5275 20.9173 13.5651 20.9156C13.5788 20.9152 13.5921 20.9106 13.6031 20.9023C13.6141 20.894 13.6223 20.8826 13.6265 20.8695C13.6508 20.8059 13.6708 20.7409 13.6863 20.6746C13.7426 20.4269 13.7853 20.1739 13.8484 19.9279C13.973 19.4511 14.0908 18.9726 14.1779 18.4855C14.2735 17.9489 14.3793 17.4141 14.4988 16.8809C14.5698 16.5094 14.7238 16.1589 14.9494 15.8555C15.0819 15.6494 15.2346 15.4571 15.4052 15.2813C15.7221 15.0413 16.0836 14.867 16.4687 14.7687C16.8954 14.6268 17.3222 14.5072 17.7677 14.403C18.3173 14.2731 18.8687 14.1398 19.4235 14.0321C19.7102 13.9757 19.9953 13.904 20.277 13.839C20.3162 13.8305 20.3657 13.8219 20.3674 13.7724C20.3691 13.7228 20.3213 13.7143 20.2838 13.7057C19.9099 13.622 19.5412 13.516 19.1657 13.4597C18.3822 13.3417 17.6089 13.176 16.8391 12.9931C16.3048 12.865 15.791 12.6924 15.383 12.2942C15.035 11.9966 14.7718 11.6122 14.62 11.18C14.3793 10.3802 14.2308 9.56336 14.0601 8.74992C13.9509 8.23725 13.8075 7.72457 13.7187 7.2119C13.7151 7.16741 13.7002 7.12458 13.6754 7.08749C13.6506 7.0504 13.6167 7.02028 13.577 7C13.5611 7.00651 13.5472 7.01729 13.537 7.03116C13.5268 7.04502 13.5205 7.06144 13.519 7.07861C13.4883 7.364 13.42 7.64255 13.3637 7.92281C13.193 8.77726 13.0786 9.65905 12.8328 10.505C12.7423 10.8211 12.6518 11.1338 12.5324 11.4397C12.2877 12.0185 11.8254 12.4777 11.2453 12.718C10.7998 12.9282 10.3064 13.0034 9.83019 13.1179C8.94938 13.3281 8.0498 13.4597 7.1707 13.6801C7.10071 13.6972 7 13.6801 7 13.7792C7 13.8783 7.10413 13.8732 7.17412 13.8937Z" fill="#C5A167"/>
<path d="M8.0521 8.98157C8.15732 9.0135 8.26765 9.0248 8.37492 9.04936C8.6247 9.10683 8.87702 9.15448 9.12322 9.22619C9.21193 9.24847 9.2964 9.28412 9.37351 9.33181C9.39226 9.34678 9.41225 9.36025 9.43327 9.37209C9.485 9.39583 9.52693 9.43563 9.55229 9.48507C9.56054 9.49844 9.56976 9.51124 9.57987 9.52338C9.62617 9.58542 9.66171 9.65426 9.68509 9.72724C9.72544 9.88 9.77039 10.0323 9.80002 10.1875C9.80768 10.2283 9.81688 10.2681 9.82403 10.3088C9.85978 10.5053 9.91188 10.7018 9.93283 10.9047C9.93633 10.9318 9.94162 10.9587 9.94866 10.9852C9.94866 10.9926 9.95326 11.0005 9.96449 11C9.96861 10.9999 9.97258 10.9985 9.97588 10.9962C9.97917 10.9938 9.98162 10.9905 9.98288 10.9867C9.99015 10.9685 9.99612 10.9497 10.0008 10.9307C10.0176 10.8595 10.0304 10.7868 10.0493 10.7161C10.0866 10.579 10.1218 10.4415 10.1479 10.3015C10.1765 10.1472 10.2081 9.99347 10.2439 9.84022C10.2651 9.73344 10.3112 9.63268 10.3787 9.54549C10.4184 9.48624 10.4641 9.43095 10.5151 9.38044C10.6099 9.31144 10.7181 9.26134 10.8333 9.23307C10.961 9.1923 11.0887 9.15792 11.2221 9.12795C11.3865 9.09062 11.5515 9.0523 11.7175 9.02136C11.8033 9.00515 11.8886 8.98452 11.9729 8.96585C11.9847 8.96339 11.9995 8.96094 12 8.94669C12.0005 8.93245 11.9862 8.92999 11.975 8.92753C11.8631 8.90346 11.7528 8.87301 11.6404 8.8568C11.4059 8.82291 11.1746 8.77526 10.9442 8.7227C10.7843 8.68586 10.6306 8.63624 10.5085 8.52179C10.4044 8.43625 10.3256 8.32576 10.2802 8.20152C10.2081 7.97163 10.1637 7.73683 10.1126 7.50301C10.0799 7.35564 10.037 7.20828 10.0105 7.06091C10.0094 7.04812 10.0049 7.03581 9.99751 7.02515C9.99009 7.01449 9.97996 7.00583 9.96807 7C9.9633 7.00187 9.95916 7.00497 9.95609 7.00896C9.95303 7.01294 9.95116 7.01766 9.9507 7.0226C9.94151 7.10463 9.92108 7.1847 9.90422 7.26526C9.85314 7.51087 9.81892 7.76433 9.74537 8.00749C9.7183 8.09836 9.69122 8.18825 9.65547 8.27618C9.58226 8.44255 9.44391 8.57454 9.27033 8.64361C9.13702 8.70403 8.9894 8.72564 8.84689 8.75856C8.58332 8.81898 8.31414 8.8568 8.05108 8.92017C8.03014 8.92508 8 8.92017 8 8.94866C8 8.97715 8.03116 8.97567 8.0521 8.98157Z" fill="#C5A167"/>
<path d="M7.06513 18.477C7.19665 18.5169 7.33457 18.531 7.46865 18.5617C7.78087 18.6335 8.09628 18.6931 8.40403 18.7827C8.51491 18.8106 8.6205 18.8551 8.71689 18.9148C8.74032 18.9335 8.76531 18.9503 8.79159 18.9651C8.85626 18.9948 8.90866 19.0445 8.94036 19.1063C8.95068 19.1231 8.9622 19.1391 8.97484 19.1542C9.03271 19.2318 9.07713 19.3178 9.10636 19.409C9.15681 19.6 9.21299 19.7904 9.25002 19.9844C9.2596 20.0353 9.2711 20.0851 9.28003 20.136C9.32473 20.3817 9.38985 20.6273 9.41603 20.8809C9.42041 20.9148 9.42702 20.9484 9.43583 20.9816C9.43583 20.9908 9.44157 21.0006 9.45562 21C9.46076 20.9998 9.46573 20.9982 9.46985 20.9952C9.47396 20.9922 9.47702 20.9881 9.4786 20.9834C9.48768 20.9606 9.49515 20.9372 9.50095 20.9134C9.52202 20.8244 9.53798 20.7335 9.56161 20.6451C9.60821 20.4738 9.65227 20.3018 9.68483 20.1268C9.72059 19.934 9.76017 19.7418 9.80487 19.5503C9.83142 19.4168 9.88905 19.2909 9.97343 19.1819C10.023 19.1078 10.0801 19.0387 10.1439 18.9755C10.2624 18.8893 10.3977 18.8267 10.5417 18.7913C10.7013 18.7404 10.8609 18.6974 11.0276 18.6599C11.2332 18.6133 11.4394 18.5654 11.6469 18.5267C11.7542 18.5064 11.8608 18.4806 11.9661 18.4573C11.9808 18.4542 11.9993 18.4512 12 18.4334C12.0006 18.4156 11.9827 18.4125 11.9687 18.4094C11.8289 18.3793 11.691 18.3413 11.5505 18.321C11.2574 18.2786 10.9682 18.2191 10.6802 18.1534C10.4804 18.1073 10.2882 18.0453 10.1356 17.9022C10.0054 17.7953 9.90698 17.6572 9.8502 17.5019C9.76018 17.2145 9.70463 16.921 9.64078 16.6288C9.59992 16.4446 9.54629 16.2603 9.51308 16.0761C9.51174 16.0602 9.50617 16.0448 9.49689 16.0314C9.48762 16.0181 9.47495 16.0073 9.46009 16C9.45412 16.0023 9.44894 16.0062 9.44512 16.0112C9.44129 16.0162 9.43895 16.0221 9.43838 16.0282C9.42689 16.1308 9.40135 16.2309 9.38028 16.3316C9.31643 16.6386 9.27365 16.9554 9.18171 17.2594C9.14787 17.373 9.11403 17.4853 9.06934 17.5952C8.97782 17.8032 8.80489 17.9682 8.58791 18.0545C8.42127 18.13 8.23675 18.1571 8.05861 18.1982C7.72915 18.2737 7.39267 18.321 7.06385 18.4002C7.03767 18.4063 7 18.4002 7 18.4358C7 18.4714 7.03895 18.4696 7.06513 18.477Z" fill="#C5A167"/>
</svg>
