<svg width="27" height="27" viewBox="0 0 27 27" fill="none" xmlns="http://www.w3.org/2000/svg">
<circle cx="13.5" cy="13.5" r="13.5" fill="#E3E3E3"/>
<path d="M13.0001 9.125L14.8747 11.75H11.1252L13.0001 9.125Z" fill="#C5A167"/>
<path d="M11.1247 11.75L9.25006 9.125L7.37514 11.75H11.1247Z" fill="#C5A167"/>
<path d="M18.6247 11.75L16.7501 9.125L14.8752 11.75H18.6247Z" fill="#C5A167"/>
<path d="M11.125 11.7501L13 19.6251L14.875 11.7501H11.125Z" stroke="#0F1714" stroke-width="0.1" stroke-linecap="round" stroke-linejoin="round"/>
<path d="M13 19.625L7.375 11.75H11.125L13 19.625Z" fill="#C5A167"/>
<path d="M13 19.625L14.8749 11.75H18.6249L13 19.625Z" fill="#C5A167"/>
<path d="M11.1248 11.75L9.25014 9.125H12.9997L11.1248 11.75Z" fill="#F5F1EA"/>
<path d="M14.8747 11.75L13.0001 9.125H16.7497L14.8747 11.75L13 19.625L11.1248 11.75L14.8747 11.75Z" fill="#F5F1EA"/>
<path d="M9.25 9.125L7.375 11.75M9.25 9.125H16.75M9.25 9.125L11.125 11.75M7.375 11.75L13 19.625M7.375 11.75H18.625M16.75 9.125L18.625 11.75M16.75 9.125L14.875 11.75M11.125 11.75L13 19.625M11.125 11.75L13 9.125L14.875 11.75M13 19.625L18.625 11.75M13 19.625L14.875 11.75" stroke="#0F1714" stroke-width="0.4" stroke-linecap="round" stroke-linejoin="round"/>
</svg>
