<svg width="27" height="27" viewBox="0 0 27 27" fill="none" xmlns="http://www.w3.org/2000/svg">
<circle cx="13.5" cy="13.5" r="13.5" fill="#E3E3E3"/>
<path opacity="0.2" d="M13 17.9376C12.125 17.9376 10.6782 17.9277 9.01385 16.9668C7.34935 16.0058 6.81081 14.8019 6.63852 14.1857C6.62306 14.13 6.61886 14.0717 6.62616 14.0144C6.63347 13.957 6.65212 13.9017 6.68104 13.8517C6.70996 13.8016 6.74856 13.7578 6.7946 13.7228C6.84063 13.6879 6.89317 13.6624 6.94915 13.648C7.35285 13.5445 8.0499 13.451 8.94666 13.6637C8.58289 12.4471 8.76869 11.5031 8.92397 11.0251C8.95767 10.9222 9.02833 10.8353 9.1223 10.7814C9.21627 10.7275 9.32688 10.7103 9.43279 10.7331C10.0591 10.8755 10.6448 11.1583 11.1457 11.5604H11.1456C10.9188 12.2033 10.8061 12.8809 10.8125 13.5626C10.8125 16.7444 13 17.9376 13 17.9376ZM19.0508 13.648C18.6472 13.5445 17.9501 13.451 17.0533 13.6637C17.4171 12.4471 17.2313 11.5031 17.076 11.0251C17.0423 10.9222 16.9717 10.8353 16.8777 10.7814C16.7837 10.7275 16.6731 10.7103 16.5672 10.7331C15.9409 10.8755 15.3552 11.1583 14.8543 11.5604H14.8544C15.0812 12.2033 15.1939 12.8809 15.1875 13.5626C15.1875 16.7444 13 17.9376 13 17.9376C13.875 17.9376 15.3218 17.9277 16.9862 16.9668C18.6506 16.0058 19.1892 14.8019 19.3615 14.1857C19.3769 14.13 19.3811 14.0717 19.3738 14.0144C19.3665 13.957 19.3479 13.9017 19.319 13.8516C19.29 13.8016 19.2514 13.7578 19.2054 13.7228C19.1594 13.6879 19.1068 13.6624 19.0508 13.648Z" fill="#C5A167"/>
<path d="M19.6979 13.633C19.6402 13.5322 19.5628 13.4441 19.4703 13.3739C19.3778 13.3036 19.2721 13.2527 19.1596 13.2242C18.6598 13.1008 18.1423 13.0665 17.6307 13.1229C17.7653 12.3784 17.7178 11.6124 17.4922 10.8903C17.4258 10.6843 17.2853 10.5104 17.0979 10.4023C16.9105 10.2941 16.6896 10.2593 16.4781 10.3048C15.971 10.4169 15.4871 10.6157 15.0476 10.8924C14.6967 10.1537 14.1747 9.50936 13.5249 9.01279C13.3737 8.89873 13.1894 8.83704 13 8.83704C12.8106 8.83704 12.6263 8.89873 12.4751 9.01279C11.8253 9.50936 11.3033 10.1537 10.9524 10.8924C10.5129 10.6157 10.029 10.4169 9.522 10.3048C9.31044 10.2594 9.08956 10.2941 8.90217 10.4023C8.71478 10.5105 8.57423 10.6844 8.50777 10.8903C8.28218 11.6124 8.23469 12.3784 8.36934 13.1228C7.85772 13.0665 7.34015 13.1008 6.84045 13.2242C6.72804 13.2531 6.62253 13.3042 6.53009 13.3744C6.43765 13.4446 6.36015 13.5325 6.30212 13.633C6.24408 13.7336 6.20669 13.8446 6.19212 13.9598C6.17754 14.0749 6.18609 14.1918 6.21726 14.3037C6.41074 14.9956 7.00299 16.311 8.7951 17.3457C10.5761 18.3739 12.15 18.375 12.9971 18.375C12.9979 18.375 12.9987 18.3751 12.9996 18.3751L13 18.3751L13.0004 18.3751C13.0013 18.3751 13.0021 18.375 13.0029 18.375C13.85 18.375 15.4239 18.3739 17.2049 17.3456C18.997 16.311 19.5893 14.9956 19.7827 14.3036C19.8143 14.1919 19.8231 14.0749 19.8085 13.9597C19.7939 13.8445 19.7563 13.7334 19.6979 13.633ZM16.66 11.1606C16.8098 11.6218 16.9564 12.4469 16.6436 13.5101C16.6369 13.5283 16.6315 13.5468 16.6273 13.5657C16.4984 13.9777 16.3234 14.3737 16.1054 14.7463C15.8406 15.2026 15.5213 15.6251 15.1547 16.0044C15.4317 15.3517 15.625 14.5448 15.625 13.5625C15.6289 12.9414 15.5426 12.3229 15.3687 11.7266C15.7587 11.4566 16.1971 11.2644 16.66 11.1606ZM13.0015 9.71401C13.5272 10.1064 14.75 11.2669 14.75 13.5625C14.75 15.8891 13.509 17.0402 13 17.4145C12.491 17.0402 11.25 15.8891 11.25 13.5625C11.25 11.2669 12.4727 10.1064 13.0015 9.71401ZM9.33994 11.1607C9.80283 11.2644 10.2413 11.4565 10.6313 11.7266C10.4574 12.3229 10.3711 12.9414 10.375 13.5625C10.375 14.5448 10.5683 15.3517 10.8453 16.0044C10.4787 15.6251 10.1594 15.2026 9.89459 14.7463C9.67639 14.3733 9.50119 13.9768 9.37233 13.5643C9.36838 13.547 9.36338 13.53 9.35735 13.5133C9.04333 12.4485 9.19003 11.6223 9.33994 11.1607ZM7.05775 14.0718C7.56622 13.9498 8.09503 13.939 8.60804 14.0402C8.74814 14.4371 8.92517 14.82 9.13681 15.1838C9.60781 15.9926 10.2248 16.7069 10.9564 17.2906C10.3518 17.1382 9.77149 16.9017 9.2326 16.5879C7.70938 15.7084 7.21754 14.6316 7.05775 14.0718ZM16.7674 16.5879C16.2285 16.9016 15.6483 17.1382 15.0436 17.2906C15.7752 16.7069 16.3922 15.9926 16.8632 15.1838C17.0748 14.82 17.2519 14.4371 17.392 14.0402C17.9042 13.9398 18.4318 13.9493 18.9401 14.068C18.7825 14.6316 18.2906 15.7084 16.7674 16.5879Z" fill="#0F1714"/>
</svg>
