<svg width="210" height="62" viewBox="0 0 210 62" fill="none" xmlns="http://www.w3.org/2000/svg">
<path d="M51.0492 61.3372V61.702C50.543 61.6666 49.8908 61.6488 49.0927 61.6488C48.0549 61.6488 47.2753 61.6666 46.7615 61.702V61.3372C47.0998 61.3414 47.436 61.2838 47.7537 61.1674C47.8495 61.1241 47.9295 61.0521 47.9826 60.9613C48.0356 60.8705 48.0592 60.7654 48.0499 60.6606C48.0293 60.3657 47.9573 60.0767 47.8373 59.8066L46.716 56.814H42.3194L41.5601 58.7474C41.3503 59.22 41.2268 59.7263 41.1956 60.2425C41.181 60.4026 41.2092 60.5636 41.2773 60.7092C41.3453 60.8548 41.4508 60.9797 41.5829 61.0711C41.9511 61.2652 42.3643 61.3579 42.7801 61.3397V61.7046C42.084 61.6691 41.3854 61.6514 40.6792 61.6514C40.1325 61.6514 39.6668 61.6691 39.3175 61.7046V61.3397C39.9216 61.2029 40.3991 60.6741 40.7501 59.7534L45.0404 48.6978H45.334L49.7736 60.1715C50.0824 60.9241 50.5025 61.3118 51.0492 61.3372ZM44.5443 51.0037L42.4536 56.4466H46.5818L44.5443 51.0037Z" fill="#C5A167"/>
<path d="M63.8263 59.3685C63.8263 60.0578 63.8677 60.8357 63.9504 61.7023C63.1286 61.6668 61.7382 61.6491 59.7791 61.6491C57.4454 61.6491 55.6829 61.6668 54.4916 61.7023V61.3374C54.816 61.3388 55.1387 61.2901 55.4483 61.193C55.5446 61.1581 55.6316 61.1016 55.7027 61.0278C55.7738 60.954 55.827 60.8649 55.8584 60.7673C55.9468 60.4423 55.9844 60.1055 55.9697 59.7689V50.7176C55.9844 50.381 55.9468 50.0442 55.8584 49.7192C55.827 49.6216 55.7738 49.5325 55.7027 49.4587C55.6316 49.3849 55.5446 49.3284 55.4483 49.2935C55.1387 49.1964 54.816 49.1477 54.4916 49.1491V48.7842C55.6846 48.8197 57.4471 48.8374 59.7791 48.8374C61.5627 48.8374 62.8282 48.8197 63.5758 48.7842C63.4971 49.5003 63.4557 50.2201 63.4517 50.9406C63.4468 51.318 63.4646 51.6954 63.5049 52.0707H63.0872C63.037 51.4696 62.925 50.8752 62.7531 50.297C62.6429 49.9407 62.4012 49.6399 62.0773 49.4557C61.6253 49.257 61.1322 49.1701 60.6397 49.2023H59.121C58.8043 49.1877 58.4873 49.2236 58.1819 49.3087C58.0861 49.3406 57.999 49.3946 57.9278 49.4664C57.8566 49.5381 57.8032 49.6256 57.7719 49.7217C57.6819 50.0447 57.6443 50.3801 57.6605 50.7151V55.0228H58.8704C59.4796 55.0228 59.8862 54.8404 60.0904 54.4755C60.2825 54.1313 60.4079 53.7538 60.4599 53.363C60.508 52.983 60.5409 52.7346 60.5587 52.6231H60.9763C60.9358 53.2245 60.9155 53.7972 60.9155 54.3412V55.2154C60.9155 55.8337 60.951 56.6977 61.0219 57.8076H60.6042C60.5916 57.724 60.5587 57.4301 60.503 56.9258C60.4765 56.4957 60.2969 56.0893 59.9967 55.7804C59.68 55.5059 59.2683 55.3667 58.8502 55.3928H57.6403V59.7765C57.624 60.1114 57.6616 60.4468 57.7516 60.7698C57.7829 60.866 57.8363 60.9535 57.9076 61.0252C57.9788 61.0969 58.0658 61.1509 58.1617 61.1828C58.4718 61.2704 58.7941 61.3072 59.1159 61.2918H60.4524C61.045 61.3237 61.6372 61.2196 62.1836 60.9877C62.5798 60.7832 62.8844 60.4366 63.0366 60.0172C63.2528 59.3829 63.3889 58.7241 63.4416 58.0559H63.8592C63.826 58.4926 63.815 58.9307 63.8263 59.3685Z" fill="#C5A167"/>
<path d="M70.5338 60.4577C71.0569 61.2196 71.8609 61.6014 72.9459 61.6031C73.3474 61.6076 73.7446 61.521 74.1077 61.3497C74.4718 61.1731 74.7756 60.8927 74.981 60.5439C75.2143 60.1266 75.3289 59.6534 75.3125 59.1755C75.3201 58.7294 75.2016 58.2902 74.9708 57.9086C74.7225 57.5192 74.4081 57.1762 74.0419 56.895C73.5415 56.5129 73.0183 56.1617 72.4752 55.8434C71.8704 55.4903 71.288 55.1001 70.7312 54.6752C70.296 54.3373 69.9291 53.9193 69.6504 53.4437C69.3585 52.9293 69.2124 52.345 69.2277 51.7536C69.2074 51.1383 69.3694 50.5308 69.6935 50.0077C69.9974 49.5402 70.4299 49.1706 70.9388 48.9434C71.4785 48.7055 72.0626 48.5854 72.6523 48.5912C72.9771 48.587 73.3013 48.6185 73.6192 48.6849C73.8516 48.7345 74.0769 48.8128 74.29 48.9181C74.4921 49.0236 74.6881 49.1403 74.8772 49.2677C75.0602 49.4032 75.2744 49.4903 75.4998 49.5211C75.5563 49.5189 75.6108 49.4996 75.656 49.4656C75.7012 49.4317 75.735 49.3847 75.753 49.3311C75.8293 49.1354 75.877 48.9297 75.8947 48.7204H76.3149C76.2541 49.4333 76.2237 50.6749 76.2237 52.4453H75.8061C75.7658 51.8511 75.629 51.2674 75.4011 50.7172C75.1943 50.2095 74.8573 49.7654 74.4241 49.4299C73.961 49.084 73.3944 48.9054 72.8169 48.9231C72.4176 48.9173 72.0231 49.0095 71.6677 49.1917C71.3397 49.3618 71.066 49.6208 70.878 49.9392C70.6841 50.2746 70.5852 50.6566 70.592 51.0441C70.5792 51.3363 70.6255 51.6281 70.7282 51.902C70.8308 52.1759 70.9877 52.4262 71.1894 52.6379C71.6064 53.0583 72.074 53.4252 72.5815 53.7301L73.6521 54.3838C74.2793 54.7691 74.8859 55.1869 75.4695 55.6356C75.8997 55.9752 76.2621 56.393 76.5376 56.8671C76.8117 57.3637 76.9497 57.9241 76.9375 58.4914C76.9618 59.162 76.7855 59.8246 76.4313 60.3944C76.0898 60.9109 75.6063 61.3174 75.0392 61.5651C74.332 61.8938 73.5539 62.0401 72.7757 61.9905C71.9976 61.9409 71.2443 61.6971 70.5844 61.2813C70.4014 61.1458 70.1873 61.0587 69.9618 61.0279C69.9053 61.0301 69.8508 61.0494 69.8056 61.0834C69.7604 61.1173 69.7266 61.1643 69.7086 61.2179C69.6335 61.414 69.5858 61.6195 69.5669 61.8286H69.1493C69.1948 61.1647 69.2184 59.7068 69.2201 57.455H69.6378C69.7154 58.6882 70.0141 59.6891 70.5338 60.4577Z" fill="#C5A167"/>
<path d="M81.6581 51.118C81.6538 50.3382 81.609 49.5592 81.5239 48.7842C82.5364 48.8197 84.2508 48.8374 86.6671 48.8374C89.0835 48.8374 90.7887 48.8197 91.7825 48.7842C91.6982 49.6508 91.6568 50.4287 91.6585 51.118C91.6585 51.7312 91.6762 52.2304 91.7117 52.6155H91.294C91.2406 51.9064 91.1203 51.2039 90.9346 50.5174C90.8174 50.1001 90.5459 49.7431 90.1753 49.519C89.8108 49.3096 89.2523 49.204 88.4997 49.2023H87.51V59.5915C87.4914 59.9671 87.5402 60.3431 87.6543 60.7014C87.6981 60.8143 87.7661 60.9162 87.8536 60.9998C87.9411 61.0834 88.0459 61.1468 88.1605 61.1854C88.5455 61.2963 88.9445 61.3509 89.3451 61.3476V61.7125C88.7039 61.677 87.8112 61.6592 86.6671 61.6592C85.4505 61.6592 84.552 61.677 83.9715 61.7125V61.3476C84.3713 61.3512 84.7695 61.2966 85.1535 61.1854C85.2682 61.1468 85.373 61.0834 85.4605 60.9998C85.5479 60.9162 85.616 60.8143 85.6598 60.7014C85.7727 60.3429 85.8207 59.967 85.8015 59.5915V49.2023H84.8144C84.055 49.2023 83.5032 49.3087 83.1362 49.519C82.7647 49.7421 82.4929 50.0995 82.3769 50.5174C82.19 51.2036 82.0696 51.9062 82.0175 52.6155H81.5973C81.6378 52.2304 81.6581 51.7312 81.6581 51.118Z" fill="#C5A167"/>
<path d="M107.554 49.2935C107.458 49.3289 107.372 49.3856 107.301 49.4594C107.231 49.5331 107.178 49.622 107.146 49.7192C107.057 50.044 107.019 50.381 107.035 50.7176V59.7689C107.019 60.1055 107.057 60.4425 107.146 60.7673C107.178 60.8645 107.231 60.9534 107.301 61.0271C107.372 61.1009 107.458 61.1576 107.554 61.193C107.864 61.2896 108.186 61.3384 108.511 61.3374V61.7023C108.005 61.6668 107.227 61.6491 106.18 61.6491C105.208 61.6491 104.436 61.6668 103.866 61.7023V61.3374C104.191 61.3388 104.513 61.2901 104.823 61.193C104.919 61.1576 105.006 61.1009 105.077 61.0272C105.148 60.9534 105.201 60.8646 105.233 60.7673C105.321 60.4423 105.359 60.1055 105.344 59.7689V55.3902H99.4164V59.774C99.4018 60.1105 99.4394 60.4473 99.5278 60.7723C99.5611 60.8695 99.616 60.9579 99.6883 61.0307C99.7607 61.1036 99.8486 61.1591 99.9454 61.193C100.255 61.2901 100.578 61.3388 100.902 61.3374V61.7023C100.345 61.6668 99.5742 61.6491 98.5888 61.6491C97.5443 61.6491 96.7672 61.6668 96.2576 61.7023V61.3374C96.582 61.3384 96.9047 61.2896 97.2144 61.193C97.3101 61.1576 97.3965 61.1009 97.4671 61.0271C97.5377 60.9534 97.5906 60.8645 97.6219 60.7673C97.7116 60.4425 97.7492 60.1055 97.7332 59.7689V50.7176C97.7492 50.381 97.7116 50.044 97.6219 49.7192C97.5906 49.622 97.5377 49.5331 97.4671 49.4594C97.3965 49.3856 97.3101 49.3289 97.2144 49.2935C96.9047 49.1969 96.582 49.1481 96.2576 49.1491V48.7842C96.7638 48.8197 97.5409 48.8374 98.5888 48.8374C99.5725 48.8374 100.344 48.8197 100.902 48.7842V49.1491C100.578 49.1477 100.255 49.1964 99.9454 49.2935C99.8495 49.3289 99.7627 49.3856 99.6917 49.4593C99.6207 49.533 99.5673 49.6219 99.5354 49.7192C99.447 50.0442 99.4094 50.381 99.424 50.7176V55.0253H105.352V50.7176C105.367 50.381 105.329 50.0442 105.241 49.7192C105.209 49.6219 105.155 49.533 105.084 49.4593C105.013 49.3856 104.926 49.3289 104.831 49.2935C104.521 49.1964 104.198 49.1477 103.874 49.1491V48.7842C104.444 48.8197 105.215 48.8374 106.187 48.8374C107.232 48.8374 108.009 48.8197 108.518 48.7842V49.1491C108.191 49.1474 107.866 49.1961 107.554 49.2935Z" fill="#C5A167"/>
<path d="M122.543 59.3685C122.543 60.0578 122.585 60.8357 122.667 61.7023C121.842 61.6668 120.451 61.6491 118.494 61.6491C116.163 61.6491 114.402 61.6668 113.209 61.7023V61.3374C113.533 61.3384 113.856 61.2896 114.165 61.193C114.261 61.1573 114.348 61.1005 114.419 61.0268C114.49 60.9531 114.543 60.8644 114.575 60.7673C114.664 60.4423 114.701 60.1055 114.687 59.7689V50.7176C114.701 50.381 114.664 50.0442 114.575 49.7192C114.543 49.6221 114.49 49.5334 114.419 49.4597C114.348 49.386 114.261 49.3292 114.165 49.2935C113.856 49.1969 113.533 49.1481 113.209 49.1491V48.7842C114.402 48.8197 116.163 48.8374 118.494 48.8374C120.28 48.8374 121.55 48.8197 122.303 48.7842C122.224 49.5003 122.183 50.2201 122.179 50.9406C122.174 51.318 122.192 51.6954 122.232 52.0707H121.814C121.763 51.4697 121.651 50.8755 121.48 50.297C121.37 49.9407 121.128 49.6399 120.804 49.4557C120.352 49.257 119.859 49.1701 119.367 49.2023H117.848C117.53 49.1877 117.211 49.2236 116.904 49.3087C116.809 49.3411 116.722 49.3954 116.651 49.467C116.581 49.5387 116.528 49.6259 116.496 49.7217C116.406 50.0447 116.369 50.3801 116.385 50.7151V55.0228H117.595C118.205 55.0228 118.607 54.8404 118.812 54.4755C119.005 54.1317 119.131 53.7541 119.182 53.363C119.23 52.983 119.263 52.7346 119.281 52.6231H119.688C119.648 53.2237 119.625 53.7964 119.625 54.3412V55.2154C119.625 55.8337 119.66 56.6977 119.731 57.8076H119.314C119.314 57.724 119.268 57.4301 119.21 56.9258C119.188 56.4971 119.013 56.0906 118.716 55.7804C118.404 55.5098 118 55.37 117.587 55.3902H116.377V59.774C116.361 60.1089 116.399 60.4443 116.489 60.7673C116.52 60.8631 116.573 60.9503 116.644 61.022C116.715 61.0937 116.801 61.1479 116.896 61.1803C117.207 61.2676 117.53 61.3044 117.853 61.2893H119.182C119.774 61.3212 120.365 61.2172 120.911 60.9852C121.308 60.7811 121.613 60.4345 121.766 60.0147C121.981 59.3801 122.117 58.7214 122.171 58.0534H122.589C122.551 58.4907 122.536 58.9297 122.543 59.3685Z" fill="#C5A167"/>
<path d="M127.365 51.118C127.361 50.3382 127.316 49.5592 127.231 48.7842C128.243 48.8197 129.958 48.8374 132.374 48.8374C134.791 48.8374 136.496 48.8197 137.492 48.7842C137.408 49.6508 137.366 50.4287 137.366 51.118C137.366 51.7312 137.384 52.2304 137.421 52.6155H137.001C136.949 51.9062 136.829 51.2036 136.642 50.5174C136.526 50.0995 136.254 49.7421 135.882 49.519C135.515 49.3087 134.958 49.2023 134.204 49.2023H133.217V59.5915C133.198 59.967 133.246 60.3429 133.359 60.7014C133.403 60.8143 133.471 60.9162 133.558 60.9998C133.646 61.0834 133.75 61.1468 133.865 61.1854C134.249 61.2966 134.647 61.3512 135.047 61.3476V61.7125C134.407 61.677 133.516 61.6592 132.369 61.6592C131.154 61.6592 130.256 61.677 129.673 61.7125V61.3476C130.074 61.3509 130.473 61.2963 130.858 61.1854C130.973 61.1468 131.077 61.0834 131.165 60.9998C131.252 60.9162 131.32 60.8143 131.364 60.7014C131.478 60.3431 131.527 59.9671 131.508 59.5915V49.2023H130.519C129.766 49.2023 129.208 49.3079 128.843 49.519C128.473 49.7431 128.201 50.1001 128.084 50.5174C127.898 51.2039 127.778 51.9064 127.724 52.6155H127.307C127.346 52.2304 127.365 51.7312 127.365 51.118Z" fill="#C5A167"/>
<path d="M145.645 49.2935C145.549 49.3289 145.463 49.3856 145.392 49.4594C145.321 49.5331 145.269 49.622 145.237 49.7192C145.148 50.044 145.11 50.381 145.126 50.7176V59.7689C145.11 60.1055 145.148 60.4425 145.237 60.7673C145.269 60.8645 145.321 60.9534 145.392 61.0271C145.463 61.1009 145.549 61.1576 145.645 61.193C145.954 61.2896 146.277 61.3384 146.602 61.3374V61.7023C146.045 61.6668 145.274 61.6491 144.288 61.6491C143.245 61.6491 142.468 61.6668 141.957 61.7023V61.3374C142.281 61.3388 142.604 61.2901 142.914 61.193C143.01 61.1576 143.096 61.1009 143.167 61.0272C143.238 60.9534 143.292 60.8646 143.324 60.7673C143.412 60.4423 143.45 60.1055 143.435 59.7689V50.7176C143.45 50.381 143.412 50.0442 143.324 49.7192C143.292 49.6219 143.238 49.533 143.167 49.4593C143.096 49.3856 143.01 49.3289 142.914 49.2935C142.604 49.1964 142.281 49.1477 141.957 49.1491V48.7842C142.463 48.8197 143.24 48.8374 144.288 48.8374C145.274 48.8374 146.045 48.8197 146.602 48.7842V49.1491C146.277 49.1481 145.954 49.1969 145.645 49.2935Z" fill="#C5A167"/>
<path d="M161.181 60.8786C161.113 60.7088 161.014 60.6252 160.882 60.6252C160.747 60.6415 160.618 60.694 160.51 60.7772C160.186 61.0081 159.848 61.218 159.498 61.4056C159.166 61.5789 158.815 61.7133 158.452 61.806C158.019 61.9154 157.573 61.9683 157.126 61.9631C156.06 61.9875 155.009 61.7156 154.089 61.1776C153.2 60.6384 152.494 59.8437 152.064 58.897C151.561 57.7836 151.316 56.5709 151.347 55.3495C151.323 54.1217 151.575 52.9041 152.084 51.7867C152.531 50.8077 153.244 49.9743 154.142 49.382C155.037 48.8047 156.084 48.5067 157.149 48.5255C157.781 48.5094 158.411 48.6152 159.004 48.8372C159.542 49.0587 160.047 49.3528 160.505 49.7114C160.601 49.8037 160.726 49.86 160.859 49.8711C161.111 49.8711 161.265 49.5087 161.323 48.784H161.74C161.695 49.5746 161.671 50.9733 161.669 52.9802H161.252C161.163 52.4329 161.082 52.0097 160.999 51.7132C160.939 51.4522 160.854 51.1976 160.745 50.9531C160.631 50.7218 160.494 50.5028 160.335 50.2993C159.972 49.8261 159.49 49.4573 158.938 49.23C158.36 48.989 157.739 48.8675 157.113 48.8727C156.348 48.8637 155.608 49.1443 155.04 49.6582C154.392 50.2688 153.916 51.0397 153.661 51.8932C153.315 52.9936 153.15 54.1429 153.172 55.2963C153.15 56.4486 153.332 57.5958 153.712 58.6842C153.993 59.5268 154.501 60.2755 155.18 60.8482C155.779 61.3325 156.528 61.5939 157.298 61.5881C157.906 61.5877 158.507 61.4698 159.07 61.2409C159.612 61.0347 160.08 60.6712 160.414 60.1969C160.659 59.8735 160.84 59.5063 160.948 59.1149C161.091 58.521 161.195 57.9183 161.259 57.3108H161.677C161.677 59.4055 161.701 60.8668 161.748 61.6945H161.33C161.318 61.417 161.268 61.1425 161.181 60.8786Z" fill="#C5A167"/>
<path d="M168.643 60.4577C169.164 61.2196 169.967 61.6014 171.052 61.6031C171.454 61.6076 171.851 61.521 172.214 61.3497C172.578 61.1731 172.882 60.8927 173.087 60.5439C173.321 60.1266 173.435 59.6534 173.419 59.1755C173.426 58.7294 173.308 58.2902 173.077 57.9086C172.829 57.5192 172.514 57.1762 172.148 56.895C171.648 56.5129 171.125 56.1617 170.581 55.8434C169.977 55.4903 169.394 55.1001 168.837 54.6752C168.402 54.3373 168.035 53.9193 167.757 53.4437C167.465 52.9293 167.319 52.345 167.334 51.7536C167.314 51.1383 167.476 50.5308 167.8 50.0077C168.104 49.5402 168.536 49.1706 169.045 48.9434C169.585 48.7055 170.169 48.5854 170.759 48.5912C171.083 48.587 171.408 48.6185 171.725 48.6849C171.958 48.7345 172.183 48.8128 172.396 48.9181C172.598 49.0236 172.794 49.1403 172.983 49.2677C173.166 49.4032 173.381 49.4903 173.606 49.5211C173.663 49.5189 173.717 49.4996 173.762 49.4656C173.807 49.4317 173.841 49.3847 173.859 49.3311C173.936 49.1354 173.983 48.9297 174.001 48.7204H174.421C174.36 49.4333 174.331 50.6749 174.333 52.4453H173.912C173.873 51.8509 173.736 51.267 173.507 50.7172C173.301 50.209 172.964 49.7647 172.53 49.4299C172.067 49.084 171.501 48.9054 170.923 48.9231C170.525 48.917 170.131 49.0092 169.777 49.1917C169.447 49.361 169.173 49.6201 168.984 49.9392C168.79 50.2746 168.691 50.6566 168.698 51.0441C168.685 51.3363 168.732 51.6281 168.834 51.902C168.937 52.1759 169.094 52.4262 169.296 52.6379C169.713 53.0583 170.18 53.4252 170.688 53.7301L171.761 54.3838C172.387 54.7696 172.993 55.1874 173.576 55.6356C174.006 55.9752 174.368 56.393 174.644 56.8671C174.918 57.3637 175.056 57.9241 175.044 58.4914C175.068 59.162 174.892 59.8246 174.538 60.3944C174.197 60.9115 173.713 61.3182 173.145 61.5651C172.438 61.8938 171.66 62.0401 170.882 61.9905C170.104 61.9409 169.351 61.6971 168.691 61.2813C168.508 61.1458 168.294 61.0587 168.068 61.0279C168.012 61.0301 167.957 61.0494 167.912 61.0834C167.867 61.1173 167.833 61.1643 167.815 61.2179C167.74 61.414 167.692 61.6195 167.673 61.8286H167.256C167.301 61.1647 167.325 59.7068 167.326 57.455H167.744C167.822 58.6882 168.121 59.6891 168.643 60.4577Z" fill="#C5A167"/>
<path d="M205.546 23.7152L209.075 18.5738C207.776 17.7883 206.05 18.6448 205.111 19.8408C204.172 21.0368 203.666 22.5344 202.676 23.6823C201.973 24.4763 201.069 25.0658 200.059 25.3887C199.049 25.7115 197.971 25.7558 196.938 25.5169C197.411 25.9521 197.987 26.26 198.612 26.4116C199.237 26.5631 199.889 26.5535 200.509 26.3835C197.414 31.5578 193.541 37.2795 187.573 38.0929C186.406 34.0386 185.464 29.034 188.502 26.0997C187.578 25.5473 186.333 25.935 185.553 26.68C184.773 27.4249 184.336 28.4537 183.842 29.4014C181.899 33.1518 178.895 36.2461 175.206 38.2982C174.535 38.6681 173.783 39.0127 173.032 38.8632C171.513 38.5592 171.083 36.4509 171.662 34.9989C172.242 33.547 173.434 32.3966 173.968 30.9446C174.221 30.2807 174.249 29.3812 173.642 29.0163C172.763 28.4892 171.85 29.6143 171.381 30.5366C169.399 34.3838 166.323 37.5578 162.543 39.6589C162.077 39.9123 161.53 40.1657 161.037 39.9503C160.378 39.664 160.277 38.7669 160.411 38.06C160.971 34.7658 163.702 32.3282 165.342 29.4166C165.724 28.7426 166.005 27.7848 165.415 27.283C164.689 26.6622 163.644 27.4731 163.059 28.2358C159.943 32.3814 157.207 37.282 152.428 39.3168C151.585 39.6766 150.553 39.9148 149.801 39.3878C149.188 38.9595 148.968 38.1537 148.925 37.4062C148.685 33.0833 152.646 29.8981 155.734 26.8649C159.287 23.3764 162.083 19.1918 163.947 14.5727C164.312 13.6731 164.608 12.5455 163.985 11.8056C163.097 10.7388 161.371 11.4863 160.287 12.3555C156.665 15.2683 153.715 18.9319 151.641 23.0944C148.821 28.7603 147.406 35.6147 142.301 39.3472C142.013 39.5926 141.663 39.7523 141.289 39.8084C140.383 39.8718 139.77 38.7593 139.957 37.8725C140.145 36.9856 140.828 36.2989 141.451 35.64C142.577 34.4415 143.643 33.0174 143.703 31.3754C143.764 29.7334 142.357 27.9697 140.74 28.2637L141.906 24.8732C142.051 24.4577 142.192 23.9864 142.003 23.5885C141.681 22.9196 140.618 22.988 140.109 23.5302C139.601 24.0725 139.484 24.8606 139.35 25.5929C138.789 28.4413 137.586 31.1238 135.831 33.4352C134.076 35.7466 131.817 37.6258 129.225 38.9291C127.454 39.8033 124.629 39.9427 124.181 38.0093C123.761 36.195 125.981 35.0522 127.643 34.2084C129.384 33.3352 130.911 32.0884 132.116 30.5569C132.505 30.1306 132.768 29.6041 132.875 29.0365C133.075 27.1158 130.245 26.3708 128.494 27.1791C123.786 29.3457 123.075 36.048 118.926 39.1572C118.531 39.4537 118.053 39.7248 117.57 39.626C116.772 39.4613 116.504 38.4603 116.496 37.6444C116.398 28.0838 129.053 22.7016 130.319 13.2246C130.392 12.6824 130.413 12.0894 130.111 11.6333C129.304 10.4018 127.393 11.3267 126.353 12.3707C121.952 16.7973 118.588 22.148 116.507 28.0356C113.105 26.2619 109.017 28.7705 106.481 31.6541C103.945 34.5378 101.707 38.1081 98.037 39.2307C97.0245 39.5398 95.6273 39.441 95.3084 38.4325C95.1642 37.9814 95.3084 37.4924 95.4805 37.0515C96.374 34.7937 98.1129 32.9819 99.257 30.8407C99.6518 30.1033 99.9733 29.1987 99.5961 28.4512C98.9254 27.1209 96.9283 27.5542 95.6147 28.2561C92.0706 30.1557 88.8505 32.607 86.0749 35.5184L88.9224 30.4505C89.5324 29.366 89.9703 27.6631 88.8414 27.1563C87.6594 26.6115 86.6798 28.1902 86.2344 29.4166C85.3022 31.9742 83.9318 34.3495 82.1846 36.4357C81.2987 37.4949 80.228 38.5237 78.8713 38.7745C77.5147 39.0254 75.8846 38.1284 75.834 36.7474C75.796 35.5108 76.9274 34.6036 77.5577 33.5369C78.1879 32.4701 77.745 30.5417 76.5452 30.7976C76.039 30.9066 75.6973 31.3881 75.4062 31.8112C73.4545 34.7205 71.0158 37.2708 68.1976 39.3498C67.5901 39.7957 66.7422 40.2214 66.1423 39.7704C65.4918 39.2813 65.7601 38.25 66.1297 37.5329C68.0691 33.7416 71.0563 30.5882 74.7355 28.4487C75.6264 27.9419 76.9983 27.5998 77.4868 28.5069C77.8513 29.1835 77.9374 30.5138 78.6208 30.1616C79.3801 28.9707 78.4233 27.2678 77.0844 26.8143C75.7454 26.3607 74.2723 26.8143 72.9865 27.3945C68.9655 29.2421 65.6966 32.411 63.7226 36.3749C63.2594 37.3125 62.8645 38.3869 63.1759 39.3878C63.8238 41.4682 66.9143 41.534 68.7139 40.3025C70.5136 39.071 71.6931 37.0667 73.556 35.9365C72.5435 37.8344 74.6089 40.2088 76.7528 40.2721C78.8966 40.3355 80.7773 38.886 82.2757 37.3505L80.9975 40.3735C81.8049 41.681 83.7083 40.2265 84.541 38.9317C87.4642 34.3841 91.7303 30.8616 96.7461 28.8541C96.8473 31.0941 94.9743 32.8501 93.6809 34.6822C92.3875 36.5143 91.8205 39.5373 93.7822 40.6193C94.782 41.1717 96.0273 40.9284 97.1081 40.5534C99.5617 39.6954 101.767 38.2465 103.53 36.3343C102.75 37.1807 102.963 38.7239 103.454 39.6437C103.727 40.174 104.14 40.6192 104.648 40.931C105.344 41.3415 105.734 41.2173 106.42 40.8879C109.381 39.4914 112.013 37.4846 114.145 34.9989C113.262 36.9476 114.38 39.5398 116.403 40.2341C118.425 40.9284 120.893 39.5651 121.392 37.4848C121.437 39.4511 123.475 40.9157 125.441 40.9614C127.408 41.007 129.238 40.001 130.833 38.8632C134.514 36.239 137.544 32.8044 139.692 28.8237C140.977 28.8744 141.668 30.5265 141.296 31.758C140.924 32.9895 139.894 33.8891 138.991 34.7988C138.087 35.7085 137.219 36.8665 137.322 38.1487C137.487 40.2366 140.228 41.2654 142.18 40.5103C144.131 39.7552 145.402 37.9079 146.551 36.1595C145.495 38.7289 148.753 41.3668 151.482 40.8701C154.21 40.3735 156.192 38.065 157.931 35.9036C156.716 37.3986 157.599 39.8946 159.336 40.7308C161.072 41.567 163.216 41.0298 164.767 39.8844C166.319 38.7391 167.4 37.0971 168.448 35.4703C167.574 37.8446 170.174 40.3684 172.7 40.3025C175.226 40.2366 177.375 38.4578 179.04 36.5548C180.706 34.6518 182.164 32.4802 184.313 31.1448L184.743 36.3774C184.784 36.8715 184.819 37.391 184.576 37.8268C183.736 39.3219 180.979 38.0042 179.904 39.3472C179.116 40.3228 180.124 41.8812 181.359 42.1016C182.594 42.3221 183.794 41.6607 184.877 41.0323L195.842 34.6721C194.695 37.016 193.911 40.5407 196.275 41.643C197.616 42.2689 199.188 41.5872 200.449 40.8068C203.451 38.9447 206.031 36.4754 208.024 33.5571L201.537 39.0178C200.466 39.9199 198.803 40.8169 197.824 39.816C197.102 39.0812 197.378 37.8699 197.702 36.8944C198.49 34.515 199.299 32.0976 200.74 30.0527C202.18 28.0077 204.392 26.3505 206.888 26.1782C207.67 26.125 208.713 26.0237 208.839 25.2483C207.409 25.1125 205.97 25.0913 204.536 25.1849L205.546 23.7152ZM119.655 28.3752C119.668 28.3646 119.68 28.3528 119.691 28.3397C119.68 28.351 119.668 28.3612 119.655 28.3701V28.3752ZM120.08 27.8963C120.103 27.8945 120.125 27.8846 120.141 27.8684C120.123 27.8783 120.101 27.8819 120.08 27.8785V27.8963ZM121.093 26.7357C121.105 26.7305 121.117 26.7227 121.126 26.7129C121.113 26.7175 121.099 26.7192 121.085 26.718L121.093 26.7357ZM121.789 25.9755C121.795 25.9711 121.8 25.966 121.804 25.9603C121.797 25.965 121.79 25.9676 121.781 25.9679L121.789 25.9755ZM129.456 13.0726C129.452 13.5183 129.414 13.9631 129.342 14.4029C129.317 14.5271 129.311 14.669 129.157 14.7247C129.104 14.745 129.101 14.8033 129.089 14.8514C128.887 15.5187 128.613 16.162 128.271 16.7696C128.018 17.3068 127.651 17.7832 127.355 18.29C126.973 18.9564 126.537 19.5874 126.122 20.231C125.758 20.8012 125.398 21.3789 124.986 21.9136C124.462 22.5927 123.973 23.2971 123.419 23.9559C123.062 24.3816 122.682 24.7896 122.336 25.2229C122.26 25.3167 122.189 25.4155 122.116 25.5093C122.094 25.5184 122.075 25.5339 122.062 25.5537C122.049 25.5736 122.042 25.597 122.042 25.6208C121.99 25.6457 121.943 25.681 121.905 25.7246C121.866 25.7681 121.837 25.819 121.819 25.8742C121.798 25.8844 121.779 25.8993 121.764 25.9177C121.749 25.9361 121.739 25.9576 121.733 25.9806C121.725 25.9815 121.717 25.9852 121.71 25.9912C121.704 25.9971 121.699 26.0049 121.698 26.0135C121.53 26.1411 121.384 26.2952 121.265 26.4696C121.236 26.4768 121.21 26.4924 121.189 26.5145C121.169 26.5366 121.156 26.5642 121.151 26.5938C121.125 26.6034 121.101 26.6196 121.082 26.6409C121.064 26.6622 121.051 26.6878 121.045 26.7154C120.904 26.8138 120.791 26.9464 120.716 27.1006H120.701C120.54 27.2041 120.418 27.3583 120.354 27.539C120.311 27.5528 120.273 27.5777 120.243 27.6111C120.214 27.6445 120.193 27.6852 120.184 27.729C120.156 27.7368 120.131 27.7516 120.11 27.7719C120.089 27.7923 120.074 27.8177 120.065 27.8456C120.05 27.8473 120.036 27.8543 120.025 27.8655C120.015 27.8766 120.008 27.891 120.007 27.9064C119.992 27.9107 119.978 27.9192 119.967 27.9308C119.957 27.9424 119.949 27.9568 119.946 27.9723C119.903 27.9814 119.862 28.003 119.83 28.0345C119.799 28.0659 119.776 28.1059 119.767 28.1497C119.71 28.1696 119.658 28.2013 119.614 28.2428C119.571 28.2843 119.536 28.3346 119.514 28.3904C119.486 28.3979 119.462 28.4131 119.443 28.4342C119.424 28.4553 119.412 28.4815 119.407 28.5095C119.4 28.5107 119.393 28.5148 119.388 28.5209C119.383 28.5271 119.381 28.5347 119.382 28.5424C119.366 28.5488 119.352 28.5591 119.342 28.5724C119.331 28.5857 119.324 28.6016 119.321 28.6184C119.305 28.6206 119.291 28.6281 119.28 28.6396C119.269 28.6511 119.262 28.6659 119.26 28.6818C119.16 28.7407 119.079 28.8292 119.03 28.9352C118.891 29.0948 118.754 29.2545 118.612 29.4141C118.598 29.4351 118.577 29.4513 118.553 29.4607C118.529 29.4702 118.503 29.4725 118.478 29.4673C118.415 29.447 118.425 29.3862 118.42 29.3406C118.398 29.2197 118.42 29.0949 118.481 28.9884C118.92 28.2392 119.295 27.4542 119.602 26.6419C119.903 25.9426 120.303 25.2989 120.63 24.6148C120.997 23.8546 121.402 23.0944 121.824 22.3672C122.467 21.2446 123.105 20.1195 123.819 19.0375C124.039 18.7005 124.201 18.3229 124.437 17.9961C125.029 17.1675 125.56 16.2932 126.229 15.5153C126.689 14.9807 127.097 14.3978 127.54 13.848C128.005 13.3131 128.54 12.8427 129.129 12.4492C129.286 12.3352 129.365 12.3631 129.405 12.5455C129.446 12.7181 129.463 12.8954 129.456 13.0726ZM129.919 13.6098C129.933 13.6113 129.947 13.6074 129.958 13.5989C129.97 13.5905 129.977 13.5781 129.98 13.5642C129.975 13.5762 129.967 13.5863 129.956 13.5927C129.945 13.5992 129.932 13.6016 129.919 13.5996V13.6098ZM113.925 34.221C113.568 34.5609 113.23 34.9204 112.912 35.298C112.877 35.3471 112.838 35.3937 112.796 35.4373C112.188 35.9289 111.702 36.5421 111.13 37.0692C110.857 37.3226 110.531 37.5152 110.245 37.7559C109.604 38.2956 108.885 38.7188 108.197 39.1927L108.108 39.2256C107.974 39.2028 107.886 39.2915 107.782 39.3523C107.476 39.5794 107.143 39.7668 106.79 39.9098C106.659 39.9625 106.519 39.9853 106.379 39.9765C106.239 39.9678 106.102 39.9276 105.98 39.8591C105.803 39.6532 105.684 39.4036 105.636 39.1362C105.588 38.8689 105.612 38.5935 105.706 38.3387C105.736 38.2563 105.759 38.1716 105.775 38.0853C105.872 37.6116 106.03 37.1525 106.245 36.7195C106.629 35.8846 107.077 35.0814 107.587 34.3173C107.929 33.7953 108.329 33.3037 108.718 32.8197C109.519 31.8543 110.433 30.9883 111.439 30.2402C112.024 29.8075 112.632 29.4066 113.259 29.0391C113.723 28.7537 114.226 28.5369 114.752 28.3954C114.823 28.3715 114.898 28.3645 114.972 28.3751C115.046 28.3856 115.117 28.4135 115.178 28.4563C115.671 28.773 115.805 29.0974 115.684 29.6954C115.61 29.9785 115.52 30.2569 115.413 30.529C115.125 31.3931 114.92 32.28 114.654 33.1492C114.519 33.5664 114.266 33.9353 113.925 34.2109V34.221ZM128.021 32.987C127.169 33.5652 126.283 34.0908 125.368 34.5606C125.212 34.6646 125.031 34.725 124.844 34.7354C124.928 34.5007 125.027 34.272 125.143 34.0512C125.381 33.4429 125.691 32.8652 126.067 32.3307C126.418 31.8239 126.773 31.2994 127.142 30.7926C127.697 30.0989 128.312 29.4553 128.98 28.8693C129.317 28.5933 129.69 28.364 130.089 28.1877C130.24 28.1066 130.395 28.0356 130.549 27.9571C130.667 27.899 130.795 27.8638 130.926 27.8532C131.018 27.8354 131.113 27.8408 131.202 27.8689C131.291 27.8969 131.372 27.9467 131.438 28.0138C131.503 28.0809 131.55 28.1632 131.576 28.2532C131.602 28.3433 131.605 28.4383 131.584 28.5297C131.517 28.8778 131.413 29.2176 131.273 29.5433C131.006 30.1556 130.626 30.7125 130.154 31.1853C129.513 31.8645 128.797 32.4689 128.021 32.987ZM163.168 13.2525C163.119 14.0371 162.953 14.81 162.677 15.5457C162.348 16.3831 161.963 17.1974 161.525 17.9834C161.431 18.1405 161.35 18.3027 161.272 18.4674C161.228 18.581 161.156 18.6814 161.062 18.7588C160.959 18.8671 160.873 18.9911 160.809 19.1262C160.275 19.8712 159.768 20.6466 159.229 21.3789C158.47 22.4457 157.599 23.4416 156.81 24.4906C156.508 24.891 156.096 25.2103 155.797 25.6081C155.193 26.3675 154.54 27.0869 153.843 27.762C153.048 28.5551 152.324 29.404 151.509 30.187C151.352 30.3441 151.218 30.5214 151.069 30.6937C150.985 30.785 150.899 30.8686 150.816 30.9471C150.8 30.9669 150.778 30.981 150.753 30.9874C150.729 30.9938 150.703 30.9921 150.679 30.9826C150.606 30.9497 150.629 30.8838 150.634 30.8255C150.696 30.5326 150.801 30.2507 150.948 29.9893C151.173 29.4825 151.428 28.9757 151.674 28.4867C151.732 28.3701 151.816 28.2662 151.876 28.1497C152.33 27.3134 152.793 26.4874 153.19 25.6157C153.337 25.2939 153.567 25.0227 153.734 24.7136C154.003 24.2068 154.304 23.7355 154.544 23.2236C154.845 22.5927 155.304 22.0605 155.62 21.4499C156.126 20.4363 156.832 19.519 157.44 18.5535C157.782 18.0138 158.179 17.5197 158.543 16.9977C158.908 16.4757 159.303 16.0525 159.657 15.5635C160.2 14.854 160.8 14.1904 161.452 13.5794C161.772 13.2537 162.15 12.9892 162.565 12.7989C162.97 12.6165 163.188 12.766 163.168 13.2525ZM181.463 39.8591C181.66 39.6285 181.865 39.403 182.222 39.4182C182.394 39.4182 182.556 39.3371 182.711 39.3574C182.91 39.3559 183.108 39.3814 183.3 39.4334C183.495 39.4739 183.536 39.588 183.445 39.7755C183.354 39.9349 183.214 40.0596 183.045 40.1302C182.63 40.3263 182.158 40.3676 181.716 40.2468C181.648 40.2303 181.583 40.203 181.523 40.1657C181.496 40.154 181.471 40.1357 181.452 40.1125C181.433 40.0892 181.42 40.0617 181.414 40.0322C181.408 40.0028 181.41 39.9723 181.418 39.9435C181.427 39.9146 181.442 39.8883 181.463 39.8667V39.8591Z" fill="#C5A167"/>
<path d="M64.1048 29.3433C64.5958 28.5527 65.0691 27.7545 65.5652 26.9664C65.8183 26.5483 66.0714 26.1099 66.3043 25.6792C66.6334 25.098 66.9582 24.5161 67.2788 23.9333C67.5529 23.4034 67.7971 22.8586 68.0103 22.3014C68.3748 21.4094 68.9443 20.6214 69.2758 19.7117C69.3366 19.5419 69.4176 19.3772 69.4859 19.2049C69.739 18.5993 69.9922 17.9962 70.2453 17.383C70.5087 16.694 70.7368 15.992 70.9287 15.2798C71.2273 14.1876 71.6121 13.1183 71.8222 12.0034C72.0053 11.1214 72.1221 10.227 72.1714 9.32751C72.2213 8.3259 72.1568 7.32186 71.9791 6.3349C71.8235 5.35619 71.5071 4.41004 71.0426 3.53487C71.0426 3.28148 70.7895 3.15225 70.7338 2.93179C70.6711 2.76945 70.5859 2.61675 70.4807 2.47821C70.2061 2.0787 69.9024 1.7001 69.572 1.34553C69.2666 0.992783 68.8929 0.705724 68.4735 0.501723C68.2558 0.395297 68.1546 0.286336 67.909 0.157104C67.7275 0.0638564 67.5282 0.0103062 67.3243 0C67.1016 0 66.8789 0 66.6561 0C66.3398 0 66.2917 0.0608137 66.2613 0.364889C66.2502 0.44574 66.2635 0.528077 66.2996 0.601257C66.3357 0.674437 66.3929 0.735095 66.4638 0.775391C66.5904 0.875304 66.7335 0.952467 66.8865 1.00345C66.8922 1.02349 66.9046 1.04096 66.9217 1.05295C66.9387 1.06493 66.9593 1.07072 66.9801 1.06933C67.0186 1.12243 67.0739 1.16086 67.1371 1.17829C67.1434 1.1988 67.1545 1.21751 67.1695 1.23292C67.1845 1.24833 67.2028 1.26 67.2231 1.26698C67.6286 1.67342 67.997 2.11523 68.3242 2.58717C68.5487 2.93275 68.7508 3.29248 68.9291 3.66411C69.2267 4.32807 69.4426 5.02581 69.572 5.74195C69.702 6.2521 69.7867 6.77274 69.8251 7.29781C69.8728 8.19756 69.8533 9.09962 69.7669 9.99648C69.6314 11.4265 69.4108 12.8472 69.1063 14.251C68.8886 15.1759 68.6254 16.0881 68.3317 16.9927C67.9799 18.0697 67.6357 19.1491 67.213 20.1982C67.008 20.705 66.7549 21.1864 66.5448 21.6882C66.3777 22.086 66.2208 22.4914 66.0537 22.8918C65.7525 23.6114 65.3501 24.2804 64.9907 24.9697C64.7129 25.5655 64.3985 26.1435 64.0491 26.7003C63.7302 27.1539 63.5251 27.6709 63.2037 28.1194C62.9506 28.4665 62.781 28.8593 62.5481 29.2115C62.1938 29.7462 61.7888 30.2504 61.4724 30.813C61.2526 31.1748 61.0118 31.5234 60.751 31.857C60.4169 32.3105 60.0955 32.7743 59.7563 33.2253C59.4171 33.6763 58.9843 34.135 58.6603 34.6392C58.6097 34.6392 58.592 34.6925 58.5717 34.7355C58.4228 34.87 58.306 35.0363 58.23 35.2221C58.204 35.2338 58.1814 35.2521 58.1645 35.2752C58.1476 35.2983 58.1371 35.3254 58.1339 35.3538C57.6783 35.8277 57.2277 36.3041 56.7671 36.7728C56.357 37.1935 55.9242 37.5888 55.5268 38.0195C54.8233 38.7321 54.0566 39.3793 53.2361 39.953C52.7422 40.3051 52.2256 40.6242 51.6896 40.9083C51.0578 41.3131 50.3496 41.5839 49.609 41.7039C49.0281 41.7968 48.4327 41.7252 47.8902 41.4973C47.3477 41.2694 46.8796 40.8942 46.5388 40.4141C46.1186 39.8465 46.0098 39.1472 45.9794 38.4579C45.9357 37.081 46.1406 35.7076 46.5844 34.4036C46.7919 33.7676 47.0501 33.1543 47.3184 32.5411C47.6348 31.8215 47.9081 31.079 48.2271 30.3569C48.708 29.2673 49.2572 28.2055 49.7204 27.1058C50.1102 26.1733 50.624 25.2991 51.0189 24.3666C51.5681 23.0616 52.2034 21.7971 52.735 20.4845C53.0049 19.8826 53.1537 19.2334 53.1729 18.5739C53.1743 18.4264 53.1435 18.2804 53.0828 18.1461C53.022 18.0117 52.9327 17.8922 52.821 17.796C52.6833 17.6748 52.5228 17.5822 52.349 17.5234C52.1752 17.4647 51.9916 17.4411 51.8086 17.4539C51.6665 17.4556 51.5245 17.4649 51.3834 17.4818C50.7708 17.5227 50.1985 17.8019 49.7887 18.2597C49.4117 18.6938 49.0039 19.1003 48.5688 19.476C48.4321 19.5964 48.3121 19.7344 48.2119 19.8865C48.1245 20.0095 48.0299 20.1272 47.9284 20.2387C47.5234 20.7202 47.0121 21.0902 46.6071 21.5741C46.1338 22.1392 45.5517 22.6029 45.0682 23.1604C44.5848 23.7179 43.9646 24.2576 43.466 24.8556C43.28 25.0828 43.0769 25.2954 42.8585 25.4916C42.6536 25.6846 42.4593 25.8884 42.2764 26.1023C41.8183 26.6091 41.3373 27.0982 40.8716 27.5999C40.1123 28.4057 39.315 29.1608 38.5759 29.9768C38.262 30.3214 38.0039 30.7116 37.6824 31.0461C36.8421 31.9178 35.984 32.7743 35.1665 33.6662C34.6602 34.2152 34.149 34.7592 33.6326 35.2981C32.9948 35.9569 32.405 36.6664 31.7115 37.2746C31.3318 37.609 31.0281 38.0348 30.6585 38.3616C29.8992 39.0534 29.2335 39.8237 28.4742 40.5079C28.1828 40.805 27.8761 41.0867 27.5554 41.3517C27.2994 41.532 27.0551 41.7284 26.8239 41.9396C26.5176 42.2209 26.2316 42.5224 25.9076 42.7783C25.2698 43.2851 24.6421 43.7919 23.984 44.2582C23.7159 44.4383 23.4291 44.5887 23.1285 44.7067C23.0539 44.7386 22.9721 44.7496 22.8919 44.7384C22.8116 44.7273 22.7359 44.6944 22.6729 44.6433C22.5137 44.5259 22.3806 44.3768 22.2817 44.2055C22.1828 44.0341 22.1204 43.8441 22.0983 43.6475C22.0087 43.1166 22.0087 42.5744 22.0983 42.0435C22.2054 41.4766 22.3543 40.9184 22.5438 40.3736C22.7665 39.7452 23.05 39.1421 23.3031 38.5187C23.6005 37.7558 23.9497 37.0141 24.3485 36.299C24.4266 36.1944 24.4984 36.0852 24.5636 35.9721C24.7256 35.5717 24.9661 35.2119 25.1559 34.8268C25.3457 34.4416 25.5457 34.1223 25.7431 33.7676C25.7935 33.6476 25.8527 33.5316 25.9203 33.4204C26.1582 33.1087 26.3455 32.7641 26.5607 32.4372C26.7758 32.1104 26.91 31.7353 27.1352 31.4084C27.3073 31.155 27.4896 30.9219 27.6414 30.6635C28.0186 30.0426 28.4008 29.4168 28.74 28.7807C28.9273 28.4437 29.2031 28.1726 29.3778 27.8254C29.4892 27.6024 29.6056 27.3744 29.7372 27.1615C30.3523 26.1657 30.9724 25.1724 31.5394 24.1461C31.7925 23.7128 32.0658 23.3074 32.3215 22.8791C32.4885 22.6029 32.6404 22.3191 32.7923 22.0328C33.1719 21.3182 33.5516 20.6036 33.9212 19.8865C34.2502 19.248 34.516 18.579 34.8248 17.9328C35.3604 16.8207 35.7942 15.6621 36.1207 14.4714C36.3053 13.8834 36.435 13.2794 36.508 12.6673C36.529 12.6488 36.5445 12.6247 36.5526 12.5978C36.5606 12.5709 36.561 12.5423 36.5535 12.5152C36.5956 12.4233 36.6213 12.3246 36.6295 12.2238C36.7294 11.6662 36.8004 11.1037 36.8421 10.5387C36.9183 9.66073 36.8723 8.77637 36.7054 7.91102C36.4477 6.74282 35.9896 5.62824 35.3512 4.61688C35.2974 4.5319 35.2337 4.45364 35.1614 4.38375L33.8832 3.09397C33.7611 2.97314 33.6261 2.86607 33.4807 2.77469C32.9334 2.42855 32.3625 2.12119 31.7722 1.85486C30.6971 1.35085 29.5315 1.06903 28.3451 1.02625C27.4567 0.998379 26.5733 1.02625 25.6748 1.02625C24.9767 1.03559 24.2809 1.11025 23.5967 1.24924C21.756 1.58502 19.9545 2.10891 18.2206 2.8127C16.7882 3.35178 15.408 4.021 14.0974 4.81199C13.4874 5.19969 12.8445 5.5367 12.2117 5.88892C12.1636 5.92093 12.1179 5.95651 12.0751 5.99535C11.7072 6.3259 11.3099 6.62193 10.888 6.8797C10.7377 6.96213 10.5946 7.05706 10.4602 7.16351C9.93626 7.59175 9.41738 8.02505 8.88585 8.44569C8.05377 9.12087 7.26424 9.84698 6.52178 10.6198C6.13199 11.0177 5.7346 11.4054 5.37772 11.8336C5.21179 12.1009 5.02563 12.355 4.82087 12.5938C4.51103 12.895 4.2305 13.2251 3.98307 13.5795C3.66668 13.9951 3.47684 14.4993 3.05668 14.8465C2.65929 15.6067 2.1556 16.3035 1.75315 17.0637C1.39301 17.7535 1.08258 18.4682 0.82423 19.2024C0.551452 20.0149 0.335781 20.8455 0.178795 21.6882C0.0114619 22.6772 -0.0386637 23.6825 0.0294589 24.6833C0.0565014 25.178 0.137126 25.6682 0.269915 26.1454C0.34838 26.4596 0.444563 26.7688 0.523027 27.0804C0.757849 27.9728 1.20314 28.7957 1.82149 29.4801C1.98095 29.66 2.16826 29.8171 2.32772 29.9869C2.61765 30.2838 2.9413 30.5458 3.29207 30.7674C4.21067 31.3796 5.27182 31.7436 6.37245 31.824C8.05508 31.9864 9.75302 31.793 11.3562 31.2564C12.0385 31.0466 12.7064 30.7927 13.3558 30.4962C14.3177 30.0452 15.2304 29.4958 16.0793 28.8567C16.3098 28.6428 16.5578 28.4487 16.8209 28.2765C17.1684 28.0683 17.4782 27.8027 17.7372 27.4909C17.9493 27.26 18.1732 27.0401 18.4079 26.8321C19.0429 26.2389 19.635 25.6013 20.1797 24.924C20.572 24.4527 20.8808 23.9105 21.2377 23.4037C21.5787 22.8787 21.8881 22.3337 22.1641 21.7718C22.3438 21.4398 22.3109 21.0674 22.4552 20.7303C22.5159 20.591 22.3134 20.3198 22.1616 20.2844C21.9692 20.2387 21.9312 20.4111 21.8654 20.5251C21.6123 20.966 21.3592 21.4018 21.1314 21.8529C20.7604 22.6043 20.3215 23.3201 19.8203 23.9915C19.1799 24.8303 18.4484 25.5829 17.7448 26.3608C17.3044 26.8473 16.7121 27.1691 16.2919 27.6759C16.2473 27.717 16.198 27.7527 16.1451 27.7823C15.73 28.0687 15.2921 28.3195 14.8795 28.6135C14.2016 29.1083 13.4654 29.5176 12.6876 29.8323C11.4561 30.3542 10.1547 30.6923 8.8251 30.8358C7.67551 30.9801 6.50893 30.7818 5.47137 30.2656C4.37539 29.6879 3.65149 28.7934 3.06933 27.7697C2.66735 27.038 2.44198 26.2223 2.41124 25.3878C2.3505 24.1385 2.29734 22.8817 2.60614 21.6451C2.78246 20.8633 3.0316 20.0998 3.35029 19.3645C3.67925 18.5724 4.0519 17.7992 4.46651 17.0485C4.78543 16.5088 5.13979 15.9918 5.46377 15.4572C5.78929 14.9265 6.15038 14.4185 6.54456 13.9368C6.93689 13.4503 7.26593 12.9232 7.70128 12.4595C7.82921 12.331 7.95004 12.1957 8.06323 12.0541C8.48865 11.4889 8.96204 10.9615 9.47813 10.4779C10.1134 9.88245 10.7083 9.24642 11.4018 8.70415C11.7764 8.41528 12.1383 8.10614 12.518 7.8198C12.8514 7.52723 13.2013 7.25396 13.5659 7.00133C14.2189 6.61617 14.8087 6.14232 15.4541 5.74702C16.259 5.2605 17.0799 4.80523 17.9169 4.38122C19.0834 3.81262 20.2897 3.32989 21.5263 2.93686C22.8054 2.51852 24.1273 2.24483 25.4672 2.12092C27.0415 1.95021 28.634 2.13197 30.1295 2.65306C30.4156 2.75188 30.6763 2.90645 30.9648 2.99514C30.9704 3.00805 30.9802 3.01863 30.9926 3.0251C31.0051 3.03157 31.0194 3.03352 31.0332 3.03062C31.0359 3.03974 31.0417 3.04768 31.0495 3.05318C31.0573 3.05868 31.0667 3.06144 31.0762 3.06102C31.0819 3.07635 31.0914 3.08997 31.1038 3.10061C31.1162 3.11125 31.1311 3.11856 31.1471 3.12184C31.1509 3.13729 31.1596 3.15107 31.1719 3.16113C31.1843 3.17118 31.1995 3.17696 31.2154 3.17759C31.2169 3.18375 31.2196 3.18956 31.2233 3.19468C31.227 3.1998 31.2317 3.20413 31.2371 3.20743C31.2425 3.21073 31.2486 3.21292 31.2548 3.21389C31.2611 3.21485 31.2675 3.21457 31.2736 3.21306C31.5109 3.43113 31.7695 3.62469 32.0456 3.79081C32.0487 3.80692 32.0576 3.8213 32.0708 3.83114C32.0839 3.84098 32.1002 3.84557 32.1165 3.84402C32.1165 3.88203 32.1393 3.89976 32.1722 3.91243C32.6552 4.37413 33.0408 4.92818 33.3061 5.54177C33.7566 6.40741 33.9796 7.37363 33.9541 8.3494C33.9541 8.52171 33.9541 8.69402 33.9541 8.85619C33.9693 9.72734 33.868 10.5966 33.6529 11.4408C33.4959 12.1199 33.2859 12.7864 33.1239 13.468C32.9389 14.1951 32.6846 14.9028 32.3645 15.5813C31.8067 16.893 31.1562 18.1632 30.4181 19.3823C30.1295 19.8333 29.9119 20.3274 29.6436 20.7886C29.4727 21.1331 29.2791 21.4658 29.0639 21.7845C28.9766 21.8945 28.9011 22.0134 28.8387 22.1392C28.5222 22.816 28.169 23.475 27.7807 24.1132C27.6237 24.3488 27.4719 24.5896 27.3402 24.8379C27.0871 25.3092 26.7758 25.7425 26.5455 26.229C26.3151 26.7155 26.0063 27.0728 25.7558 27.5087C25.5052 27.9445 25.2976 28.317 25.0521 28.7123C24.9625 28.9141 24.8611 29.1104 24.7484 29.3002C24.3785 29.8075 24.0404 30.3373 23.7359 30.8864C23.4828 31.302 23.2702 31.7404 22.9968 32.1534C22.3514 33.0885 21.8604 34.1122 21.2883 35.0878C20.8828 35.8116 20.5276 36.5626 20.2253 37.3354C19.7109 38.4899 19.3664 39.713 19.2027 40.9665C19.1353 41.4162 19.1007 41.8701 19.0989 42.3247C19.1285 42.9523 19.2619 43.5705 19.4938 44.1543C19.5939 44.4055 19.7437 44.6339 19.9342 44.8258C20.3544 45.2616 20.9036 45.4719 21.425 45.7329C21.5051 45.7688 21.5907 45.7911 21.6781 45.7988C22.0913 45.8322 22.5069 45.8237 22.9184 45.7735C23.5461 45.6873 24.0751 45.3554 24.6218 45.0766C25.3287 44.6814 25.9813 44.1959 26.5632 43.6323C27.7444 42.5629 28.8935 41.4531 30.0106 40.3027C30.2308 40.0797 30.489 39.8921 30.6914 39.6565C31.0686 39.2206 31.4761 38.8127 31.876 38.3895C32.5442 37.6977 33.2276 37.0212 33.9009 36.337C34.5742 35.6528 35.2778 34.994 35.9258 34.2769C37.1745 32.8815 38.4637 31.525 39.7934 30.2073C40.7324 29.2774 41.6385 28.3145 42.5472 27.3516C43.2129 26.6446 43.8128 25.8793 44.5341 25.2256C44.9391 24.8582 45.2732 24.4147 45.6833 24.0574C46.3414 23.4873 46.8881 22.8031 47.5563 22.2456H47.5791V22.2228C47.5943 22.2228 47.6019 22.2228 47.6019 22.2051C47.6019 22.1874 47.6449 22.2051 47.6449 22.1671C47.6535 22.1647 47.6612 22.1598 47.6671 22.153C47.6729 22.1463 47.6766 22.1379 47.6778 22.1291C47.6953 22.123 47.7113 22.1134 47.7249 22.1007C47.7384 22.0881 47.7491 22.0727 47.7563 22.0556C47.8674 21.9957 47.9614 21.9085 48.0296 21.8022C48.0355 21.8022 48.0413 21.801 48.0467 21.7987C48.0521 21.7964 48.0569 21.793 48.061 21.7887C48.065 21.7844 48.0681 21.7794 48.0701 21.7739C48.0721 21.7683 48.073 21.7625 48.0727 21.7566C48.0808 21.7545 48.088 21.75 48.0935 21.7437C48.0989 21.7373 48.1022 21.7294 48.103 21.7211C48.1206 21.7144 48.1366 21.7038 48.1497 21.6903C48.1628 21.6767 48.1728 21.6604 48.179 21.6426C48.2031 21.6325 48.2249 21.6176 48.2432 21.5989C48.2614 21.5802 48.2757 21.558 48.2853 21.5336C48.302 21.5284 48.3163 21.5173 48.3256 21.5024C48.3348 21.4876 48.3385 21.4699 48.3359 21.4525C48.4675 21.3284 48.589 21.1991 48.7307 21.08C48.8012 21.0153 48.8893 20.973 48.9839 20.9584C49.1028 20.9407 49.1585 21.0015 49.1307 21.118C49.1155 21.1763 49.08 21.227 49.0598 21.2827C48.918 21.64 48.6776 21.9416 48.5308 22.2963C48.1946 23.1418 47.804 23.9645 47.3614 24.7593C47.0324 25.3396 46.7489 25.9402 46.4553 26.5331C46.2275 26.9943 46.0275 27.4732 45.7668 27.9192C45.5227 28.3493 45.3079 28.7954 45.1239 29.2546C44.8986 29.7968 44.6936 30.3467 44.4557 30.8814C44.1292 31.6245 43.846 32.386 43.6078 33.1619C43.4994 33.4337 43.4147 33.7143 43.3546 34.0007C43.2984 34.0833 43.262 34.1778 43.2483 34.2769C42.9032 35.5124 42.773 36.7981 42.8636 38.0778C42.9036 38.5078 42.9884 38.9325 43.1167 39.3448C43.1095 39.5248 43.1601 39.7024 43.261 39.8516C43.2539 39.8753 43.2542 39.9007 43.2619 39.9242C43.2696 39.9478 43.2843 39.9684 43.304 39.9834C43.4098 40.299 43.5634 40.5964 43.7596 40.8652C44.0953 41.4221 44.5575 41.8917 45.1087 42.2361C45.3268 42.363 45.5515 42.478 45.782 42.5807C46.1416 42.7669 46.5287 42.8944 46.9286 42.9582C47.5599 43.0503 48.2004 43.0613 48.8345 42.9912C49.4577 42.9126 50.0684 42.7551 50.6519 42.5224C51.3379 42.2791 52.0018 41.9773 52.6363 41.6203C53.2817 41.2554 53.831 40.7486 54.4511 40.3533C55.2661 39.8465 55.9065 39.132 56.6177 38.5086C57.1467 38.0449 57.5973 37.495 58.1237 37.0136C58.5287 36.6487 58.8046 36.1622 59.2172 35.7998C59.435 35.6179 59.6244 35.4044 59.7791 35.1663C59.9441 34.9114 60.1322 34.6722 60.341 34.4517C60.913 33.8233 61.4015 33.129 61.9179 32.455C62.5056 31.748 63.0379 30.9965 63.51 30.2073C63.6694 29.8982 63.92 29.6423 64.1048 29.3433Z" fill="#C5A167"/>
<path d="M189.026 11.2054C189.547 11.3701 190.094 11.4284 190.625 11.5551C191.863 11.8516 193.113 12.0974 194.333 12.4673C194.773 12.5822 195.192 12.7661 195.574 13.0121C195.667 13.0893 195.766 13.1588 195.87 13.2199C196.126 13.3424 196.334 13.5477 196.46 13.8027C196.5 13.8717 196.546 13.9377 196.596 14.0004C196.826 14.3204 197.002 14.6755 197.118 15.0519C197.318 15.84 197.54 16.6255 197.687 17.4263C197.725 17.6366 197.771 17.8418 197.806 18.0522C197.983 19.0657 198.241 20.0793 198.345 21.1259C198.363 21.2659 198.389 21.4047 198.424 21.5414C198.424 21.5794 198.446 21.62 198.502 21.6174C198.523 21.6169 198.542 21.61 198.559 21.5977C198.575 21.5855 198.587 21.5685 198.593 21.549C198.629 21.4548 198.659 21.3583 198.682 21.2602C198.765 20.8927 198.829 20.5177 198.922 20.1528C199.107 19.4458 199.282 18.7363 199.411 18.0142C199.553 17.2185 199.709 16.4254 199.887 15.6348C199.992 15.084 200.22 14.5642 200.555 14.1144C200.751 13.8088 200.978 13.5235 201.231 13.263C201.701 12.907 202.237 12.6486 202.808 12.5028C203.44 12.2925 204.073 12.1151 204.734 11.9605C205.549 11.7679 206.366 11.5703 207.189 11.4106C207.614 11.327 208.037 11.2206 208.455 11.1243C208.513 11.1116 208.586 11.099 208.589 11.0255C208.591 10.952 208.52 10.9393 208.465 10.9267C207.91 10.8025 207.364 10.6454 206.807 10.5618C205.645 10.3869 204.498 10.1411 203.357 9.87C202.565 9.67995 201.803 9.42402 201.198 8.83361C200.682 8.39235 200.291 7.82239 200.066 7.18147C199.709 5.99557 199.489 4.78434 199.236 3.57817C199.074 2.81799 198.862 2.0578 198.73 1.29761C198.725 1.23164 198.703 1.16813 198.666 1.11313C198.629 1.05812 198.579 1.01347 198.52 0.983398C198.496 0.993057 198.476 1.00904 198.461 1.0296C198.445 1.05016 198.436 1.0745 198.434 1.09996C198.388 1.52313 198.287 1.93617 198.203 2.35174C197.95 3.61872 197.781 4.92624 197.416 6.18055C197.282 6.64934 197.148 7.11305 196.971 7.56663C196.608 8.42486 195.922 9.10571 195.062 9.46203C194.402 9.77371 193.67 9.8852 192.964 10.055C191.658 10.3667 190.324 10.5618 189.021 10.8887C188.917 10.914 188.767 10.8887 188.767 11.0356C188.767 11.1826 188.922 11.175 189.026 11.2054Z" fill="#C5A167"/>
<path d="M108.184 39.1694L108.182 39.1855L108.19 39.1801L108.184 39.1694Z" fill="#C5A167"/>
</svg>
