<svg width="1438" height="250" viewBox="0 0 1438 250" fill="none" xmlns="http://www.w3.org/2000/svg">
<path d="M171.668 120.75C173.768 122.25 174.968 124.2 175.268 126.6C175.868 129 175.418 131.25 173.918 133.35C169.718 138.75 164.468 144.15 158.168 149.55C151.868 154.95 143.918 159.75 134.318 163.95C127.418 166.95 120.218 169.8 112.718 172.5C105.218 175.2 97.5679 177.75 89.7679 180.15C99.0679 193.95 98.6179 209.1 88.4179 225.6C85.4179 230.7 81.6679 235.05 77.1679 238.65C72.9679 242.25 68.6179 245.4 64.1179 248.1C59.6179 250.5 55.1179 252.45 50.6179 253.95C46.4179 255.15 42.6679 256.05 39.3679 256.65C31.8679 258.15 25.1179 258.9 19.1179 258.9C6.51792 258.9 -3.83208 256.5 -11.9321 251.7C-18.2321 248.1 -22.2821 243.45 -24.0821 237.75C-24.6821 235.35 -24.8321 232.5 -24.5321 229.2C-24.5321 225.9 -23.3321 222.15 -20.9321 217.95C-14.0321 205.95 -0.53208 195.3 19.5679 186C24.9679 183.3 30.6679 180.9 36.6679 178.8C42.6679 176.4 48.8179 174.15 55.1179 172.05C52.7179 170.55 50.3179 169.05 47.9179 167.55C45.5179 165.75 42.9679 164.1 40.2679 162.6C34.5679 159 29.0179 155.4 23.6179 151.8C18.2179 148.2 13.2679 144.3 8.76792 140.1C-2.33208 129.9 -7.88208 118.65 -7.88208 106.35C-7.88208 90.75 -5.63208 78 -1.13208 68.1C3.06792 58.2 9.06792 52.05 16.8679 49.65C21.0679 48.15 24.9679 48.3 28.5679 50.1C32.4679 51.6 35.6179 54.15 38.0179 57.75C43.1179 65.55 44.0179 76.05 40.7179 89.25C37.4179 101.25 30.6679 113.55 20.4679 126.15C24.0679 130.05 28.4179 133.8 33.5179 137.4C38.6179 140.7 44.0179 144 49.7179 147.3C54.2179 150.3 58.7179 153.3 63.2179 156.3C67.7179 159 72.0679 162 76.2679 165.3C84.6679 162.6 93.0679 159.75 101.468 156.75C110.168 153.75 118.118 150.6 125.318 147.3C132.818 143.7 139.418 139.95 145.118 136.05C151.118 131.85 155.768 127.5 159.068 123C160.568 120.6 162.518 119.25 164.918 118.95C167.318 118.65 169.568 119.25 171.668 120.75ZM10.1179 106.35C10.1179 107.85 10.2679 108.9 10.5679 109.5C16.8679 100.5 20.9179 92.7 22.7179 86.1C24.5179 79.2 24.9679 73.8 24.0679 69.9C23.1679 66.3 21.5179 65.7 19.1179 68.1C16.7179 70.2 14.6179 74.4 12.8179 80.7C11.0179 87 10.1179 95.55 10.1179 106.35ZM73.1179 216.6C76.7179 210.3 78.3679 204.75 78.0679 199.95C77.7679 195.15 75.5179 190.5 71.3179 186C62.9179 188.7 54.6679 191.4 46.5679 194.1C38.7679 196.8 31.4179 199.8 24.5179 203.1C17.9179 206.4 11.9179 210 6.51792 213.9C1.41792 217.8 -2.48208 222.15 -5.18208 226.95C-7.58208 230.85 -6.83208 234 -2.93208 236.4C1.26792 238.8 6.81792 240.3 13.7179 240.9C20.9179 241.2 28.2679 240.6 35.7679 239.1C54.0679 235.2 66.5179 227.7 73.1179 216.6ZM299.626 258.45C298.126 258.45 296.776 258.45 295.576 258.45C294.376 258.45 293.026 258.15 291.526 257.55C275.926 254.25 263.776 241.65 255.076 219.75C251.176 210.15 248.026 198.45 245.626 184.65C244.426 189.45 243.226 193.95 242.026 198.15C240.826 202.35 239.476 206.55 237.976 210.75C228.976 234.15 218.176 248.85 205.576 254.85C201.376 256.95 197.026 257.7 192.526 257.1C188.026 256.5 183.826 254.85 179.926 252.15C169.726 244.65 162.826 230.4 159.226 209.4C157.426 198.9 156.526 186.3 156.526 171.6C156.526 156.6 157.426 141.6 159.226 126.6C159.826 124.2 161.026 122.25 162.826 120.75C164.926 119.25 167.176 118.65 169.576 118.95C171.976 119.25 173.926 120.45 175.426 122.55C176.926 124.35 177.526 126.45 177.226 128.85C175.426 142.95 174.526 157.05 174.526 171.15C174.526 184.95 175.426 196.65 177.226 206.25C179.026 217.35 181.276 225.15 183.976 229.65C186.976 233.85 189.226 236.55 190.726 237.75C192.826 239.25 195.376 239.4 198.376 238.2C201.376 237 204.826 233.85 208.726 228.75C212.626 223.65 216.526 216.15 220.426 206.25C224.326 196.35 227.926 183.6 231.226 168C234.826 152.4 237.526 133.5 239.326 111.3C239.326 108.9 240.076 106.95 241.576 105.45C243.376 103.95 245.476 103.2 247.876 103.2C250.276 103.2 252.226 103.95 253.726 105.45C255.526 106.95 256.576 108.9 256.876 111.3C257.776 118.8 258.526 127.2 259.126 136.5C259.726 145.5 260.476 154.8 261.376 164.4C262.576 173.7 263.926 182.7 265.426 191.4C267.226 199.8 269.326 207 271.726 213C274.126 218.7 277.126 224.4 280.726 230.1C284.626 235.5 289.426 238.8 295.126 240C301.726 241.5 308.326 240.15 314.926 235.95C321.826 231.45 327.826 226.65 332.926 221.55C342.526 211.95 352.426 198.75 362.626 181.95C372.826 164.85 383.326 145.5 394.126 123.9C395.326 121.5 396.976 120 399.076 119.4C401.476 118.5 403.876 118.65 406.276 119.85C408.676 121.05 410.176 122.85 410.776 125.25C411.676 127.35 411.526 129.6 410.326 132C398.926 154.5 387.826 174.6 377.026 192.3C366.226 210 355.726 223.95 345.526 234.15C329.326 250.35 314.026 258.45 299.626 258.45ZM428.094 258.9H424.944C416.544 257.4 409.944 250.35 405.144 237.75C400.344 225.15 397.044 206.1 395.244 180.6C393.444 156 393.294 126.45 394.794 91.95C396.294 57.45 399.144 18.9 403.344 -23.7C405.144 -41.1 410.094 -51.15 418.194 -53.85C423.594 -55.65 428.544 -54.15 433.044 -49.35C437.544 -44.25 440.694 -36.15 442.494 -25.05C444.594 -14.25 445.194 -1.50002 444.294 13.2C443.694 25.8 441.144 42.3 436.644 62.7C432.444 82.8 424.344 106.2 412.344 132.9C412.344 133.2 412.194 133.5 411.894 133.8C411.894 133.8 411.894 133.95 411.894 134.25C411.894 142.05 411.894 149.4 411.894 156.3C412.194 163.2 412.494 169.95 412.794 176.55C413.694 190.65 414.894 201.9 416.394 210.3C417.894 218.7 419.394 225.15 420.894 229.65C422.694 234.15 424.194 237.15 425.394 238.65C426.594 240.15 427.344 240.9 427.644 240.9C428.244 240.9 430.044 239.55 433.044 236.85C436.044 234.15 440.094 227.25 445.194 216.15C449.394 206.25 453.594 194.4 457.794 180.6C462.294 166.5 466.644 150.6 470.844 132.9C471.744 128.7 474.444 126.3 478.944 125.7C478.944 125.7 480.444 125.4 483.444 124.8C486.444 124.2 490.194 123.6 494.694 123C499.494 122.4 504.744 121.8 510.444 121.2C516.444 120.3 522.294 119.7 527.994 119.4C530.394 119.1 532.494 119.85 534.294 121.65C536.094 123.45 537.144 125.55 537.444 127.95C537.744 130.35 536.994 132.45 535.194 134.25C533.394 136.05 531.294 137.1 528.894 137.4C521.094 138 513.144 139.05 505.044 140.55C497.244 142.05 491.244 142.95 487.044 143.25C482.844 160.95 478.494 176.85 473.994 190.95C469.494 205.05 464.844 216.9 460.044 226.5C449.544 248.1 438.894 258.9 428.094 258.9ZM422.694 -30.9L421.344 -21.9C417.444 15 414.744 49.05 413.244 80.25C417.744 65.25 420.894 51.9 422.694 40.2C424.794 28.5 425.994 18.6 426.294 10.5C426.894 -1.32322e-05 426.744 -8.55002 425.844 -15.15C424.944 -22.05 423.894 -27.3 422.694 -30.9ZM702.527 120.75C704.627 122.25 705.827 124.2 706.127 126.6C706.727 129 706.277 131.25 704.777 133.35C700.577 138.75 695.327 144.15 689.027 149.55C682.727 154.95 674.777 159.75 665.177 163.95C658.277 166.95 651.077 169.8 643.577 172.5C636.077 175.2 628.427 177.75 620.627 180.15C629.927 193.95 629.477 209.1 619.277 225.6C616.277 230.7 612.527 235.05 608.027 238.65C603.827 242.25 599.477 245.4 594.977 248.1C590.477 250.5 585.977 252.45 581.477 253.95C577.277 255.15 573.527 256.05 570.227 256.65C562.727 258.15 555.977 258.9 549.977 258.9C537.377 258.9 527.027 256.5 518.927 251.7C512.627 248.1 508.577 243.45 506.777 237.75C506.177 235.35 506.027 232.5 506.327 229.2C506.327 225.9 507.527 222.15 509.927 217.95C516.827 205.95 530.327 195.3 550.427 186C555.827 183.3 561.527 180.9 567.527 178.8C573.527 176.4 579.677 174.15 585.977 172.05C583.577 170.55 581.177 169.05 578.777 167.55C576.377 165.75 573.827 164.1 571.127 162.6C565.427 159 559.877 155.4 554.477 151.8C549.077 148.2 544.127 144.3 539.627 140.1C528.527 129.9 522.977 118.65 522.977 106.35C522.977 90.75 525.227 78 529.727 68.1C533.927 58.2 539.927 52.05 547.727 49.65C551.927 48.15 555.827 48.3 559.427 50.1C563.327 51.6 566.477 54.15 568.877 57.75C573.977 65.55 574.877 76.05 571.577 89.25C568.277 101.25 561.527 113.55 551.327 126.15C554.927 130.05 559.277 133.8 564.377 137.4C569.477 140.7 574.877 144 580.577 147.3C585.077 150.3 589.577 153.3 594.077 156.3C598.577 159 602.927 162 607.127 165.3C615.527 162.6 623.927 159.75 632.327 156.75C641.027 153.75 648.977 150.6 656.177 147.3C663.677 143.7 670.277 139.95 675.977 136.05C681.977 131.85 686.627 127.5 689.927 123C691.427 120.6 693.377 119.25 695.777 118.95C698.177 118.65 700.427 119.25 702.527 120.75ZM540.977 106.35C540.977 107.85 541.127 108.9 541.427 109.5C547.727 100.5 551.777 92.7 553.577 86.1C555.377 79.2 555.827 73.8 554.927 69.9C554.027 66.3 552.377 65.7 549.977 68.1C547.577 70.2 545.477 74.4 543.677 80.7C541.877 87 540.977 95.55 540.977 106.35ZM603.977 216.6C607.577 210.3 609.227 204.75 608.927 199.95C608.627 195.15 606.377 190.5 602.177 186C593.777 188.7 585.527 191.4 577.427 194.1C569.627 196.8 562.277 199.8 555.377 203.1C548.777 206.4 542.777 210 537.377 213.9C532.277 217.8 528.377 222.15 525.677 226.95C523.277 230.85 524.027 234 527.927 236.4C532.127 238.8 537.677 240.3 544.577 240.9C551.777 241.2 559.127 240.6 566.627 239.1C584.927 235.2 597.377 227.7 603.977 216.6ZM744.086 258C742.285 258 740.635 258 739.136 258C737.636 257.7 736.135 257.4 734.635 257.1C728.935 255.6 722.635 252 715.735 246.3C709.135 240.6 703.435 230.55 698.635 216.15C691.135 194.25 688.585 165.15 690.985 128.85C691.885 115.65 694.885 106.5 699.985 101.4C705.085 96 710.185 93.3 715.285 93.3C720.385 93.6 725.335 96.6 730.135 102.3C734.936 107.7 737.486 117.15 737.786 130.65C737.786 133.05 736.886 135.15 735.085 136.95C733.286 138.75 731.186 139.65 728.786 139.65C726.385 139.65 724.286 138.75 722.486 136.95C720.685 135.15 719.785 133.05 719.785 130.65C719.485 124.65 718.735 120.15 717.535 117.15C716.335 114.15 715.435 112.35 714.835 111.75C714.235 112.35 713.185 114.15 711.685 117.15C710.485 119.85 709.585 124.2 708.985 130.2C706.585 163.8 708.835 190.5 715.735 210.3C717.535 216.3 720.235 222.3 723.836 228.3C727.735 234.3 732.835 238.05 739.136 239.55C750.836 242.25 764.786 235.5 780.986 219.3C790.286 209.7 799.586 196.35 808.886 179.25C818.186 162.15 827.186 143.7 835.886 123.9C836.786 121.5 838.286 119.85 840.386 118.95C842.786 118.05 845.186 118.2 847.586 119.4C849.986 120.3 851.636 121.95 852.536 124.35C853.436 126.45 853.436 128.7 852.536 131.1C843.236 152.1 833.636 171.6 823.736 189.6C813.836 207.3 803.786 221.4 793.586 231.9C783.386 242.1 774.086 249 765.686 252.6C757.586 256.2 750.386 258 744.086 258ZM1029.48 123C1030.98 125.1 1031.43 127.35 1030.83 129.75C1030.53 131.85 1029.33 133.65 1027.23 135.15C1020.33 140.25 1013.58 145.05 1006.98 149.55C1000.38 154.05 994.084 157.2 988.084 159C976.384 162.3 965.584 163.05 955.684 161.25C948.784 160.05 942.484 157.8 936.784 154.5C931.384 151.2 926.434 147.6 921.934 143.7C917.734 139.5 913.984 135.15 910.684 130.65C907.384 126.15 904.384 121.95 901.684 118.05L897.184 111.75C893.584 118.35 889.984 127.8 886.384 140.1C883.084 152.1 879.934 166.35 876.934 182.85C875.134 193.95 873.634 204.15 872.434 213.45C871.534 222.75 870.784 230.25 870.184 235.95C870.484 241.95 870.334 246.15 869.734 248.55C869.434 250.95 868.534 252.9 867.034 254.4C864.934 255.9 862.834 256.65 860.734 256.65C859.834 256.65 858.484 256.35 856.684 255.75C856.084 255.15 855.184 254.4 853.984 253.5C853.084 252.6 852.334 251.25 851.734 249.45C851.434 247.95 851.284 246 851.284 243.6C851.584 240.9 851.884 238.2 852.184 235.5C851.884 230.1 851.284 222.9 850.384 213.9C849.784 204.9 848.734 195.45 847.234 185.55C846.034 175.65 844.534 165.9 842.734 156.3C840.934 146.4 838.684 137.7 835.984 130.2C835.084 127.8 835.084 125.55 835.984 123.45C837.184 121.35 838.984 119.85 841.384 118.95C843.784 118.05 846.034 118.2 848.134 119.4C850.234 120.3 851.734 121.95 852.634 124.35C855.034 130.35 856.684 137.4 857.584 145.5C858.784 153.3 860.134 160.65 861.634 167.55C868.234 132.75 876.484 109.05 886.384 96.45C888.184 94.05 889.984 92.55 891.784 91.95C893.884 91.05 895.534 90.6 896.734 90.6C900.934 90.9 904.384 92.7 907.084 96C910.084 99 913.234 102.9 916.534 107.7C918.634 111 921.034 114.6 923.734 118.5C926.734 122.4 929.884 126 933.184 129.3C936.784 132.6 940.684 135.6 944.884 138.3C949.084 140.7 953.734 142.35 958.834 143.25C966.934 144.75 975.784 143.4 985.384 139.2C995.284 134.7 1005.78 128.55 1016.88 120.75C1018.98 119.25 1021.23 118.8 1023.63 119.4C1026.03 119.7 1027.98 120.9 1029.48 123ZM1173.19 119.85C1175.59 120.75 1177.24 122.4 1178.14 124.8C1179.04 126.9 1178.89 129.15 1177.69 131.55C1168.69 152.55 1159.09 171.9 1148.89 189.6C1138.99 207 1128.94 220.95 1118.74 231.45C1108.54 241.95 1099.24 249 1090.84 252.6C1082.74 256.2 1075.54 258 1069.24 258C1067.44 258 1065.79 258 1064.29 258C1063.09 257.7 1061.74 257.4 1060.24 257.1C1054.54 255.6 1048.24 252.15 1041.34 246.75C1034.74 241.35 1028.89 231.6 1023.79 217.5C1020.19 206.7 1017.79 193.35 1016.59 177.45C1015.69 161.25 1015.69 144.6 1016.59 127.5C1016.89 125.1 1017.94 123 1019.74 121.2C1021.54 119.4 1023.64 118.65 1026.04 118.95C1028.74 119.25 1030.84 120.3 1032.34 122.1C1034.14 123.9 1034.89 126 1034.59 128.4C1033.69 144.3 1033.69 159.75 1034.59 174.75C1035.49 189.75 1037.59 202.05 1040.89 211.65C1042.99 217.05 1045.84 222.75 1049.44 228.75C1053.34 234.45 1058.29 238.05 1064.29 239.55C1065.19 239.85 1066.84 240 1069.24 240C1080.34 240 1092.49 232.95 1105.69 218.85C1115.29 209.25 1124.74 196.05 1134.04 179.25C1143.64 162.45 1152.79 144.15 1161.49 124.35C1162.39 121.95 1163.89 120.3 1165.99 119.4C1168.39 118.5 1170.79 118.65 1173.19 119.85ZM1015.24 46.05C1015.84 44.25 1016.14 43.05 1016.14 42.45C1016.14 42.15 1015.99 41.7 1015.69 41.1C1015.39 40.2 1015.09 39.45 1014.79 38.85C1013.89 36.45 1014.04 34.2 1015.24 32.1C1016.14 29.7 1017.79 28.05 1020.19 27.15C1022.59 26.25 1024.84 26.4 1026.94 27.6C1029.34 28.5 1030.99 30.15 1031.89 32.55C1033.39 36.45 1034.14 39.3 1034.14 41.1C1034.14 42.9 1033.84 45.75 1033.24 49.65C1032.64 52.05 1031.44 53.85 1029.64 55.05C1028.14 56.25 1026.34 56.85 1024.24 56.85H1022.44C1020.04 56.25 1018.09 54.9 1016.59 52.8C1015.09 50.7 1014.64 48.45 1015.24 46.05ZM1195.38 258.9H1192.23C1183.83 257.4 1177.23 250.35 1172.43 237.75C1167.63 225.15 1164.33 206.1 1162.53 180.6C1160.73 156 1160.58 126.45 1162.08 91.95C1163.58 57.45 1166.43 18.9 1170.63 -23.7C1172.43 -41.1 1177.38 -51.15 1185.48 -53.85C1190.88 -55.65 1195.83 -54.15 1200.33 -49.35C1204.83 -44.25 1207.98 -36.15 1209.78 -25.05C1211.88 -14.25 1212.48 -1.50002 1211.58 13.2C1210.98 25.8 1208.43 42.3 1203.93 62.7C1199.73 82.8 1191.63 106.2 1179.63 132.9C1179.63 133.2 1179.48 133.5 1179.18 133.8C1179.18 133.8 1179.18 133.95 1179.18 134.25C1179.18 142.05 1179.18 149.4 1179.18 156.3C1179.48 163.2 1179.78 169.95 1180.08 176.55C1180.98 190.65 1182.18 201.9 1183.68 210.3C1185.18 218.7 1186.68 225.15 1188.18 229.65C1189.98 234.15 1191.48 237.15 1192.68 238.65C1193.88 240.15 1194.63 240.9 1194.93 240.9C1195.53 240.9 1197.33 239.55 1200.33 236.85C1203.33 234.15 1207.38 227.25 1212.48 216.15C1216.68 206.25 1220.88 194.4 1225.08 180.6C1229.58 166.5 1233.93 150.6 1238.13 132.9C1239.03 128.7 1241.73 126.3 1246.23 125.7C1246.23 125.7 1247.73 125.4 1250.73 124.8C1253.73 124.2 1257.48 123.6 1261.98 123C1266.78 122.4 1272.03 121.8 1277.73 121.2C1283.73 120.3 1289.58 119.7 1295.28 119.4C1297.68 119.1 1299.78 119.85 1301.58 121.65C1303.38 123.45 1304.43 125.55 1304.73 127.95C1305.03 130.35 1304.28 132.45 1302.48 134.25C1300.68 136.05 1298.58 137.1 1296.18 137.4C1288.38 138 1280.43 139.05 1272.33 140.55C1264.53 142.05 1258.53 142.95 1254.33 143.25C1250.13 160.95 1245.78 176.85 1241.28 190.95C1236.78 205.05 1232.13 216.9 1227.33 226.5C1216.83 248.1 1206.18 258.9 1195.38 258.9ZM1189.98 -30.9L1188.63 -21.9C1184.73 15 1182.03 49.05 1180.53 80.25C1185.03 65.25 1188.18 51.9 1189.98 40.2C1192.08 28.5 1193.28 18.6 1193.58 10.5C1194.18 -1.32322e-05 1194.03 -8.55002 1193.13 -15.15C1192.23 -22.05 1191.18 -27.3 1189.98 -30.9ZM1452.71 119.4C1455.11 120.3 1456.61 121.95 1457.21 124.35C1458.11 126.45 1458.11 128.7 1457.21 131.1C1448.21 152.1 1438.76 171.45 1428.86 189.15C1418.96 206.85 1408.76 220.95 1398.26 231.45C1388.36 241.95 1379.21 249 1370.81 252.6C1362.41 256.2 1355.06 258 1348.76 258C1347.26 258 1345.76 258 1344.26 258C1342.76 257.7 1341.26 257.4 1339.76 257.1C1333.76 255.6 1327.31 252 1320.41 246.3C1313.81 240.6 1308.11 230.55 1303.31 216.15C1295.81 193.95 1293.41 164.85 1296.11 128.85C1297.01 109.65 1303.01 98.1 1314.11 94.2C1321.31 91.8 1327.76 93.75 1333.46 100.05C1336.46 103.65 1338.86 108.6 1340.66 114.9C1342.46 121.2 1343.06 129 1342.46 138.3C1341.86 147.6 1339.91 158.4 1336.61 170.7C1333.31 183 1328.06 196.65 1320.86 211.65C1322.66 217.35 1325.36 223.05 1328.96 228.75C1332.86 234.45 1337.81 238.05 1343.81 239.55C1355.51 242.25 1369.46 235.5 1385.66 219.3C1395.26 209.7 1404.56 196.35 1413.56 179.25C1422.86 162.15 1431.86 143.7 1440.56 123.9C1441.76 121.5 1443.41 119.85 1445.51 118.95C1447.91 118.05 1450.31 118.2 1452.71 119.4ZM1314.11 180.6C1319.81 165.3 1323.11 152.25 1324.01 141.45C1324.91 130.65 1324.31 122.4 1322.21 116.7C1321.61 115.2 1321.01 114.15 1320.41 113.55C1320.11 112.65 1319.81 112.05 1319.51 111.75C1318.91 112.35 1317.86 114.15 1316.36 117.15C1315.16 119.85 1314.26 124.2 1313.66 130.2C1313.06 139.5 1312.76 148.35 1312.76 156.75C1313.06 165.15 1313.51 173.1 1314.11 180.6Z" fill="white" fill-opacity="0.03"/>
</svg>
