<svg width="43" height="44" viewBox="0 0 43 44" fill="none" xmlns="http://www.w3.org/2000/svg">
<path d="M0.55 21.65C1.66 22 2.82 22.12 3.95 22.39C6.58 23.02 9.24 23.54 11.83 24.33C12.7622 24.5713 13.6499 24.9595 14.46 25.48C14.6554 25.6465 14.8664 25.7939 15.09 25.92C15.6344 26.1808 16.0749 26.6177 16.34 27.16C16.42 27.31 16.54 27.44 16.63 27.58C17.1197 28.2575 17.4947 29.0109 17.74 29.81C18.17 31.48 18.64 33.15 18.95 34.81C19.03 35.25 19.13 35.69 19.2 36.13C19.58 38.3 20.13 40.45 20.35 42.65C20.3879 42.9459 20.4413 43.2397 20.51 43.53C20.51 43.61 20.51 43.7 20.68 43.69C20.7228 43.6915 20.7649 43.6785 20.7994 43.6531C20.8339 43.6277 20.8588 43.5913 20.87 43.55C20.9516 43.3519 21.0184 43.148 21.07 42.94C21.24 42.16 21.37 41.36 21.57 40.59C21.97 39.09 22.34 37.59 22.57 36.05C22.87 34.3567 23.2033 32.6733 23.57 31C23.8067 29.8537 24.2951 28.7744 25 27.84C25.4252 27.1749 25.9215 26.5579 26.48 26C27.4772 25.252 28.6122 24.7083 29.82 24.4C31.17 23.96 32.54 23.58 33.91 23.25C35.65 22.84 37.38 22.43 39.13 22.08C40.03 21.91 40.93 21.68 41.83 21.48C41.95 21.48 42.11 21.43 42.12 21.27C42.13 21.11 41.97 21.08 41.85 21.06C40.68 20.79 39.52 20.47 38.33 20.29C35.86 19.92 33.43 19.4 31.01 18.82C29.3057 18.5263 27.7165 17.7646 26.42 16.62C25.3302 15.681 24.5032 14.4749 24.02 13.12C23.26 10.6 22.79 8.03 22.25 5.47C21.91 3.85 21.46 2.26 21.17 0.64C21.158 0.504461 21.1112 0.374323 21.0341 0.262196C20.957 0.150068 20.8522 0.0597528 20.73 0C20.6816 0.0206863 20.6394 0.0537558 20.6078 0.0958846C20.5762 0.138013 20.5563 0.187717 20.55 0.24C20.45 1.14 20.24 2.02 20.06 2.9C19.52 5.61 19.16 8.36 18.39 11.02C18.1 12.02 17.81 13.02 17.44 13.96C16.669 15.7744 15.2138 17.2116 13.39 17.96C11.9497 18.5296 10.4554 18.9518 8.93 19.22C6.16 19.9 3.32 20.31 0.55 21C0.34 21 0 21 0 21.31C0 21.62 0.34 21.58 0.55 21.65Z" fill="#C5A167"/>
</svg>
